<svg xmlns="http://www.w3.org/2000/svg"  xml:space="preserve" version="1.1" shape-rendering="geometricPrecision" text-rendering="geometricPrecision" image-rendering="optimizeQuality" fill-rule="evenodd" clip-rule="evenodd" viewBox="0 0 3300000 3300000" x="0px" y="0px"><g><path fill="black" d="M1289933 1129077l90270 -240097c-10134,233276 -148072,542517 -194844,772947 9471,-399511 93271,-513830 30869,-1020215 27440,-3274 24517,13798 59440,-36092 14655,164247 -8185,384271 14226,523457l39 0zm206421 898724c377723,-378230 748703,-404500 1123971,59907 -898569,-577517 -552339,-200301 -1054281,-36014 36326,-41822 115176,-81384 181749,-175629 -516831,210396 -254674,904844 -244111,1253958 -229612,-970403 -122933,-1325013 511919,-1575438 236511,-93388 437981,-771465 438839,-997881 9354,231755 -137822,747222 -288856,920668 -126831,145734 -619457,243877 -669269,550429l39 0zm-455326 -562473c-30168,-32857 -271706,-433303 -294819,-484285 -135951,115878 -159532,182840 -18008,264496 -41003,152438 78,76199 3002,191687 1364,53009 23191,48838 32818,84853 7289,27361 -56828,194181 163663,203497 74796,3118 154114,-21515 230235,-27985 -25490,97792 -152983,387779 -213514,483466 -135951,214918 -136574,268472 -240330,459496 -56010,103133 61271,228287 144876,286674l130182 -335589c335862,-785380 909911,-1522819 883290,-2407200 59868,64740 26270,110148 113890,168496 -77837,229144 -145305,493951 -239551,712611 -235185,545205 -559471,1053578 -770842,1609425 -34104,89802 -132443,311891 -857,358429 426327,-1530887 1042977,-1792225 1225777,-2519452 52151,-185763 -85826,-367745 40653,-418181 136847,47006 20853,366225 -15474,469435 -266093,755095 -754198,1221490 -1073690,2032478 -32156,105861 -136536,413971 -75381,512232 31064,49968 367823,175005 439306,193051 98260,-587106 429874,-1293948 1152696,-877716 -479140,-475671 -1090528,-72730 -1131103,601800 -71093,-691407 925657,-1397353 1282099,-327599 15474,-541971 -301562,-663266 -250035,-993476 18007,-115488 3040,-685250 -22178,-738843 -34377,63221 -57608,157778 -102859,241812 68949,-300900 270303,-1252672 -290182,-1196078 -830359,83878 -479920,-211799 -1332262,259702 -74367,41120 -160272,67741 -240681,100677 -132599,54372 -77564,103951 -24166,211136 122348,245554 421260,668178 493484,880874l-39 77z"></path></g></svg>