<?xml version="1.0" encoding="utf-8"?>
<!-- Generator: Adobe Illustrator 16.0.0, SVG Export Plug-In . SVG Version: 6.00 Build 0)  -->
<!DOCTYPE svg PUBLIC "-//W3C//DTD SVG 1.1//EN" "http://www.w3.org/Graphics/SVG/1.1/DTD/svg11.dtd">
<svg version="1.1" id="Layer_1" xmlns="http://www.w3.org/2000/svg"  x="0px" y="0px"
	 width="1800px" height="750px" viewBox="0 417.5 1800 750" enable-background="new 0 0 1800 1584" xml:space="preserve">
<path fill="#B6E1EA" d="M1419.396,738.034l-2.857-4.352l2.166-1.423l2.857,4.347L1419.396,738.034z M1414.412,730.423l-2.857-4.342
	l2.176-1.429l2.857,4.347L1414.412,730.423z M1409.416,722.822l-2.857-4.347l2.176-1.428l2.857,4.347L1409.416,722.822z
	 M1404.422,715.208l-2.857-4.333l2.186-1.428l2.857,4.342L1404.422,715.208z M1399.436,707.611l-2.855-4.347l2.176-1.423
	l2.855,4.347L1399.436,707.611z M1394.441,700.005l-2.857-4.347l2.186-1.424l2.838,4.342L1394.441,700.005z M1389.447,692.4
	l-2.848-4.352l2.166-1.424l2.857,4.347L1389.447,692.4z M1384.451,684.79l-2.828-4.337l2.148-1.429l2.855,4.347L1384.451,684.79z
	 M1379.467,677.188l-2.857-4.342l2.186-1.428l2.848,4.347L1379.467,677.188z M1374.48,669.587l-2.855-4.347l2.166-1.429l2.857,4.347
	L1374.48,669.587z M1369.496,661.977l-2.857-4.352l2.166-1.419l2.857,4.352L1369.496,661.977z"/>
<rect x="1311.195" y="638.077" fill="#B6E1EA" width="94.854" height="2.602"/>
<path fill="#B6E1EA" d="M1690.211,725.859l-0.064-2.601c1.693-0.038,3.387-0.161,5.051-0.374l0.33,2.578
	C1693.77,725.679,1691.98,725.821,1690.211,725.859z M1686.211,725.793c-1.77-0.095-3.549-0.284-5.289-0.558l0.408-2.568
	c1.645,0.265,3.338,0.44,5.021,0.534L1686.211,725.793z M1699.463,724.809l-0.52-2.549c1.656-0.327,3.291-0.762,4.881-1.263
	l0.805,2.479C1702.955,724.005,1701.213,724.45,1699.463,724.809z M1676.996,724.468c-1.721-0.416-3.434-0.922-5.107-1.509
	l0.861-2.455c1.588,0.558,3.215,1.041,4.852,1.433L1676.996,724.468z M1708.385,722.118l-0.984-2.412
	c1.57-0.629,3.104-1.348,4.598-2.138l1.211,2.299C1711.658,720.689,1710.029,721.451,1708.385,722.118z M1668.17,721.484
	c-1.607-0.714-3.234-1.523-4.758-2.403l1.277-2.251c1.475,0.833,2.988,1.604,4.521,2.28L1668.17,721.484z M1716.672,717.856
	l-1.391-2.194c1.398-0.899,2.799-1.887,4.133-2.928l1.6,2.039C1719.613,715.87,1718.156,716.915,1716.672,717.856z
	 M1660.006,716.962c-1.455-0.998-2.875-2.076-4.236-3.226l1.684-1.977c1.285,1.079,2.639,2.109,4.029,3.056L1660.006,716.962z
	 M1724.059,712.175l-1.768-1.906c1.229-1.145,2.412-2.36,3.547-3.624l1.939,1.722
	C1726.604,709.692,1725.346,710.974,1724.059,712.175z M1652.816,711.055c-1.268-1.239-2.469-2.559-3.613-3.926l2.016-1.656
	c1.068,1.296,2.213,2.549,3.406,3.727L1652.816,711.055z M1730.303,705.265l-2.072-1.561c1.004-1.338,1.949-2.753,2.828-4.195
	l2.225,1.343C1732.375,702.371,1731.371,703.855,1730.303,705.265z M1646.781,703.955c-1.021-1.443-1.977-2.966-2.838-4.503
	l2.271-1.277c0.813,1.471,1.711,2.909,2.695,4.281L1646.781,703.955z M1735.221,697.347l-2.326-1.164
	c0.756-1.504,1.428-3.06,2.043-4.635l2.412,0.917C1736.727,694.131,1736.006,695.772,1735.221,697.347z M1642.127,695.891
	c-0.746-1.599-1.418-3.269-1.986-4.953l2.461-0.837c0.539,1.594,1.182,3.178,1.873,4.702L1642.127,695.891z M1738.627,688.682
	l-2.498-0.729c0.465-1.623,0.861-3.273,1.154-4.924l2.564,0.459C1739.525,685.229,1739.109,686.979,1738.627,688.682z
	 M1638.986,687.112c-0.434-1.712-0.793-3.467-1.049-5.222l2.563-0.383c0.246,1.66,0.588,3.334,1.004,4.966L1638.986,687.112z
	 M1740.396,679.53l-2.574-0.265c0.172-1.655,0.246-3.358,0.246-5.051h2.602C1740.67,675.992,1740.586,677.784,1740.396,679.53z
	 M1637.492,677.921c-0.086-1.229-0.133-2.479-0.133-3.708c0-0.544,0.01-1.079,0.029-1.623l2.602,0.085
	c-0.01,0.515-0.02,1.021-0.02,1.537c0,1.168,0.037,2.351,0.113,3.528L1637.492,677.921z M1738.041,672.222
	c-0.076-1.693-0.219-3.387-0.465-5.038l2.564-0.369c0.256,1.736,0.416,3.519,0.502,5.302L1738.041,672.222z M1640.254,668.887
	l-2.572-0.279c0.18-1.764,0.463-3.529,0.822-5.26l2.535,0.544C1640.689,665.534,1640.434,667.218,1640.254,668.887z
	 M1736.887,663.453c-0.369-1.646-0.822-3.282-1.363-4.876l2.471-0.828c0.557,1.679,1.049,3.41,1.438,5.132L1736.887,663.453z
	 M1641.996,660.217l-2.498-0.747c0.51-1.684,1.107-3.373,1.777-5.023l2.414,0.998C1643.035,657.001,1642.469,658.6,1641.996,660.217
	z M1734.191,655.034c-0.654-1.552-1.41-3.075-2.225-4.55l2.281-1.258c0.852,1.547,1.637,3.155,2.326,4.792L1734.191,655.034z
	 M1645.287,651.997l-2.326-1.178c0.803-1.589,1.693-3.136,2.648-4.621l2.186,1.409
	C1646.895,649.017,1646.035,650.488,1645.287,651.997z M1730,647.239c-0.928-1.4-1.93-2.767-2.99-4.073l1.996-1.646
	c1.137,1.372,2.195,2.81,3.16,4.286L1730,647.239z M1649.971,644.5l-2.053-1.575c1.078-1.4,2.223-2.771,3.443-4.063l1.9,1.779
	C1652.098,641.865,1651,643.166,1649.971,644.5z M1724.494,640.319c-1.164-1.211-2.412-2.379-3.699-3.472l1.703-1.977
	c1.354,1.149,2.639,2.384,3.869,3.656L1724.494,640.319z M1655.957,637.973l-1.758-1.916c1.305-1.201,2.695-2.332,4.113-3.387
	l1.553,2.091C1658.512,635.754,1657.197,636.842,1655.957,637.973z M1717.824,634.496c-1.361-0.988-2.781-1.92-4.236-2.752
	l1.295-2.251c1.523,0.884,3.037,1.859,4.475,2.904L1717.824,634.496z M1663.016,632.619l-1.391-2.2
	c1.504-0.946,3.064-1.816,4.654-2.597l1.135,2.341C1665.92,630.897,1664.434,631.725,1663.016,632.619z M1710.219,629.965
	c-1.504-0.728-3.084-1.386-4.662-1.949l0.869-2.45c1.674,0.596,3.32,1.286,4.91,2.062L1710.219,629.965z M1670.895,628.622
	l-0.984-2.417c1.666-0.648,3.359-1.229,5.063-1.717l0.709,2.507C1674.055,627.454,1672.455,627.993,1670.895,628.622z
	 M1701.932,626.876c-1.627-0.44-3.281-0.804-4.947-1.079l0.416-2.559c1.752,0.279,3.502,0.667,5.223,1.125L1701.932,626.876z
	 M1679.361,626.105l-0.51-2.549c1.74-0.345,3.518-0.605,5.277-0.767l0.246,2.583
	C1682.711,625.533,1681.008,625.779,1679.361,626.105z M1693.23,625.334c-1.676-0.142-3.387-0.199-5.063-0.175l-0.057-2.592
	c1.77-0.033,3.566,0.028,5.326,0.175L1693.23,625.334z"/>
<path fill="#B6E1EA" d="M415.086,836.255l-0.019-2.601c1.693-0.02,3.387-0.114,5.042-0.294l0.293,2.583
	C418.644,836.132,416.856,836.236,415.086,836.255z M411.076,836.113c-1.75-0.113-3.519-0.341-5.27-0.644l0.436-2.573
	c1.675,0.303,3.358,0.512,5.023,0.625L411.076,836.113z M424.357,835.356l-0.491-2.554c1.646-0.313,3.301-0.72,4.919-1.211
	l0.737,2.487C427.829,834.6,426.079,835.016,424.357,835.356z M401.9,834.619c-1.731-0.455-3.435-0.984-5.09-1.609l0.908-2.439
	c1.58,0.586,3.197,1.105,4.825,1.531L401.9,834.619z M433.316,832.783l-0.946-2.422c1.561-0.605,3.103-1.305,4.607-2.081
	l1.182,2.308C436.598,831.402,434.961,832.141,433.316,832.783z M393.121,831.459c-1.599-0.757-3.178-1.599-4.701-2.517l1.344-2.223
	c1.428,0.86,2.941,1.665,4.455,2.384L393.121,831.459z M441.64,828.621l-1.362-2.204c1.429-0.89,2.829-1.864,4.163-2.896
	l1.579,2.053C444.621,826.662,443.154,827.693,441.64,828.621z M385.061,826.748c-1.428-1.031-2.828-2.156-4.152-3.32l1.712-1.939
	c1.258,1.107,2.592,2.156,3.954,3.141L385.061,826.748z M449.094,823.012l-1.75-1.921c1.249-1.136,2.45-2.346,3.558-3.595
	l1.938,1.74C451.667,820.552,450.4,821.819,449.094,823.012z M378.023,820.665c-1.239-1.276-2.421-2.63-3.519-4.021l2.063-1.607
	c1.031,1.324,2.157,2.61,3.311,3.821L378.023,820.665z M455.395,816.152l-2.053-1.57c1.012-1.343,1.968-2.742,2.856-4.181
	l2.204,1.353C457.486,813.258,456.473,814.744,455.395,816.152z M372.177,813.41c-0.994-1.477-1.902-3.018-2.725-4.588l2.308-1.202
	c0.785,1.485,1.637,2.942,2.573,4.352L372.177,813.41z M460.352,808.264l-2.309-1.174c0.757-1.494,1.447-3.055,2.063-4.635
	l2.422,0.928C461.884,805.047,461.166,806.684,460.352,808.264z M367.74,805.217c-0.7-1.636-1.305-3.32-1.835-5.008l2.479-0.762
	c0.511,1.604,1.097,3.197,1.74,4.748L367.74,805.217z M463.805,799.598l-2.498-0.732c0.474-1.613,0.87-3.264,1.173-4.924
	l2.545,0.478C464.732,796.154,464.306,797.9,463.805,799.598z M364.874,796.344c-0.369-1.73-0.672-3.49-0.88-5.25l2.573-0.303
	c0.208,1.665,0.492,3.344,0.852,4.98L364.874,796.344z M465.602,790.46l-2.573-0.265c0.171-1.674,0.256-3.373,0.256-5.061
	c0-1.239-0.057-2.493-0.161-3.723l2.611-0.198c0.094,1.3,0.132,2.615,0.132,3.921C465.867,786.913,465.782,788.705,465.602,790.46z
	 M363.691,787.102c-0.019-0.653-0.038-1.311-0.038-1.968c0-1.116,0.038-2.247,0.104-3.358l2.602,0.17
	c-0.076,1.05-0.114,2.128-0.114,3.188c0,0.629,0.019,1.253,0.038,1.873L363.691,787.102z M366.738,778.177l-2.564-0.378
	c0.255-1.746,0.605-3.505,1.031-5.227l2.526,0.634C367.314,774.837,366.983,776.507,366.738,778.177z M462.698,777.637
	c-0.246-1.665-0.596-3.33-1.031-4.947l2.507-0.667c0.454,1.712,0.833,3.462,1.088,5.217L462.698,777.637z M368.809,769.568
	l-2.478-0.833c0.567-1.67,1.229-3.339,1.977-4.957l2.374,1.092C369.982,766.399,369.339,767.983,368.809,769.568z M460.542,769.062
	c-0.54-1.58-1.192-3.16-1.911-4.678l2.336-1.112c0.757,1.604,1.457,3.264,2.034,4.934L460.542,769.062z M372.395,761.489
	l-2.271-1.268c0.871-1.546,1.816-3.065,2.848-4.517l2.119,1.5C374.125,758.581,373.218,760.019,372.395,761.489z M456.871,761.026
	c-0.832-1.461-1.76-2.89-2.743-4.252l2.1-1.523c1.051,1.438,2.016,2.947,2.896,4.484L456.871,761.026z M377.408,754.196
	l-2.005-1.665c1.125-1.362,2.346-2.677,3.613-3.921l1.816,1.854C379.631,751.646,378.468,752.9,377.408,754.196z M451.791,753.789
	c-1.078-1.287-2.261-2.53-3.462-3.689l1.788-1.873c1.276,1.221,2.497,2.531,3.651,3.883L451.791,753.789z M383.633,747.924
	l-1.665-1.996c1.371-1.14,2.8-2.209,4.257-3.207l1.456,2.157C386.292,745.824,384.929,746.846,383.633,747.924z M445.481,747.583
	c-1.314-1.064-2.677-2.072-4.077-2.999l1.438-2.167c1.467,0.97,2.914,2.024,4.276,3.155L445.481,747.583z M390.898,742.887
	l-1.277-2.256c1.552-0.875,3.15-1.679,4.777-2.388l1.031,2.388C393.897,741.297,392.374,742.059,390.898,742.887z M438.15,742.626
	c-1.467-0.813-3.009-1.556-4.56-2.213l1.021-2.394c1.617,0.691,3.244,1.476,4.796,2.327L438.15,742.626z M398.967,739.259
	l-0.842-2.464c1.674-0.577,3.387-1.074,5.127-1.466l0.587,2.536C402.193,738.242,400.556,738.71,398.967,739.259z M430.042,739.084
	c-1.599-0.535-3.226-0.984-4.881-1.339l0.558-2.54c1.731,0.378,3.472,0.851,5.137,1.405L430.042,739.084z M407.566,737.159
	l-0.397-2.578c1.75-0.26,3.538-0.426,5.308-0.506l0.113,2.602C410.906,736.752,409.212,736.913,407.566,737.159z M421.434,737.083
	c-1.674-0.231-3.367-0.374-5.052-0.435l0.095-2.592c1.76,0.052,3.557,0.213,5.308,0.44L421.434,737.083z"/>
<path fill="#B6E1EA" d="M294.928,893.496l-3.443-3.906l1.949-1.723l3.443,3.907L294.928,893.496z M288.902,886.666l-3.434-3.888
	l1.939-1.722l3.434,3.889L288.902,886.666z M282.886,879.855l-3.443-3.897l1.939-1.722l3.443,3.897L282.886,879.855z
	 M276.87,873.035l-3.443-3.889l1.939-1.73l3.443,3.906L276.87,873.035z M270.834,866.215l-3.434-3.898l1.949-1.712l3.434,3.888
	L270.834,866.215z M264.818,859.403l-3.443-3.897l1.939-1.722l3.443,3.897L264.818,859.403z M258.801,852.592l-3.443-3.906
	l1.939-1.723l3.444,3.908L258.801,852.592z M252.775,845.762l-3.434-3.888l1.939-1.731l3.434,3.898L252.775,845.762z
	 M246.75,838.951l-3.443-3.897l1.949-1.731l3.443,3.907L246.75,838.951z M240.733,832.121l-3.443-3.889l1.949-1.721l3.443,3.888
	L240.733,832.121z M234.707,825.311l-3.434-3.898l1.939-1.721l3.434,3.896L234.707,825.311z M228.69,818.499l-3.443-3.897
	l1.939-1.722l3.443,3.888L228.69,818.499z M222.674,811.669l-3.443-3.897l1.939-1.713l3.443,3.889L222.674,811.669z
	 M216.639,804.857l-3.434-3.896l1.949-1.723l3.434,3.898L216.639,804.857z M210.623,798.042l-3.443-3.901l1.939-1.722l3.443,3.902
	L210.623,798.042z M204.606,791.222l-3.443-3.893l1.939-1.722l3.443,3.893L204.606,791.222z M198.589,784.401l-3.443-3.893
	l1.939-1.717l3.443,3.888L198.589,784.401z M192.563,777.585l-3.443-3.897l1.939-1.717l3.443,3.893L192.563,777.585z
	 M186.538,770.765l-3.443-3.897l1.949-1.722l3.443,3.902L186.538,770.765z M180.521,763.949l-3.443-3.893l1.939-1.722l3.443,3.888
	L180.521,763.949z M174.496,757.124l-3.443-3.888l1.939-1.731l3.443,3.902L174.496,757.124z M168.479,750.313l-3.443-3.902
	l1.939-1.717l3.443,3.897L168.479,750.313z M162.462,743.492l-3.443-3.897l1.939-1.722l3.443,3.902L162.462,743.492z
	 M156.427,736.676l-3.434-3.893l1.949-1.722l3.434,3.893L156.427,736.676z M150.411,729.856l-3.443-3.893l1.939-1.722l3.443,3.897
	L150.411,729.856z M144.395,723.04l-3.443-3.893l1.939-1.727l3.443,3.897L144.395,723.04z M138.369,716.22l-3.434-3.897l1.939-1.722
	l3.434,3.902L138.369,716.22z M132.343,709.404l-3.444-3.902l1.949-1.712l3.443,3.893L132.343,709.404z M126.326,702.579
	l-3.443-3.888l1.949-1.722l3.443,3.897L126.326,702.579z M120.3,695.768l-3.434-3.902l1.939-1.712l3.434,3.893L120.3,695.768z
	 M114.284,688.947l-3.443-3.897l1.939-1.722l3.443,3.897L114.284,688.947z M108.267,682.131l-3.443-3.893l1.939-1.722l3.443,3.893
	L108.267,682.131z M102.232,675.311l-3.434-3.893l1.949-1.722l3.434,3.902L102.232,675.311z M96.215,668.5l-3.443-3.907l1.939-1.712
	l3.443,3.897L96.215,668.5z M90.199,661.674l-3.443-3.897l1.939-1.712l3.443,3.893L90.199,661.674z"/>
<path fill="#B6E1EA" d="M95.97,909.247l-1.958-1.712l3.415-3.907l1.958,1.702L95.97,909.247z M101.948,902.398L100,900.686
	l3.405-3.916l1.958,1.712L101.948,902.398z M107.936,895.539l-1.949-1.702l3.406-3.917l1.968,1.703L107.936,895.539z
	 M113.924,888.691l-1.958-1.703l3.424-3.916l1.939,1.702L113.924,888.691z M119.903,881.842l-1.968-1.703l3.434-3.926l1.958,1.713
	L119.903,881.842z M125.872,874.993l-1.949-1.712l3.434-3.917l1.949,1.712L125.872,874.993z M131.87,868.145l-1.958-1.713
	l3.425-3.916l1.958,1.712L131.87,868.145z M137.857,861.295l-1.958-1.712l3.424-3.917l1.949,1.713L137.857,861.295z
	 M143.836,854.446l-1.949-1.722l3.405-3.916l1.968,1.721L143.836,854.446z M149.824,847.588l-1.949-1.713l3.406-3.916l1.977,1.723
	L149.824,847.588z M155.813,840.738l-1.958-1.711l3.415-3.917l1.949,1.712L155.813,840.738z M161.791,833.891l-1.949-1.713
	l3.405-3.916l1.968,1.712L161.791,833.891z M167.779,827.031l-1.967-1.702l3.434-3.917l1.949,1.713L167.779,827.031z
	 M173.767,820.183l-1.968-1.702l3.424-3.917l1.958,1.703L173.767,820.183z M179.746,813.334l-1.958-1.722l3.424-3.897l1.949,1.703
	L179.746,813.334z M185.724,806.484l-1.949-1.711l3.424-3.917l1.949,1.712L185.724,806.484z M191.712,799.627l-1.949-1.703
	l3.405-3.916l1.968,1.707L191.712,799.627z M197.7,792.778l-1.958-1.703l3.415-3.917l1.949,1.703L197.7,792.778z M203.679,785.934
	l-1.949-1.712l3.406-3.916l1.977,1.708L203.679,785.934z M209.667,779.075l-1.958-1.708l3.415-3.912l1.958,1.712L209.667,779.075z
	 M215.665,772.227l-1.977-1.708l3.424-3.917l1.958,1.703L215.665,772.227z M221.624,765.377l-1.958-1.712l3.434-3.912l1.949,1.708
	L221.624,765.377z M227.612,758.524l-1.958-1.712l3.434-3.912l1.949,1.712L227.612,758.524z M233.6,751.67l-1.949-1.703l3.415-3.921
	l1.958,1.717L233.6,751.67z M239.588,744.821l-1.958-1.708l3.424-3.912l1.949,1.708L239.588,744.821z M245.567,737.977l-1.949-1.717
	l3.406-3.912l1.958,1.708L245.567,737.977z M251.555,731.124l-1.958-1.712l3.415-3.916l1.977,1.717L251.555,731.124z
	 M257.534,724.27l-1.949-1.708l3.405-3.912l1.968,1.708L257.534,724.27z M263.521,717.421l-1.967-1.717l3.434-3.912l1.958,1.712
	L263.521,717.421z M269.519,710.572l-1.977-1.708l3.434-3.921l1.949,1.712L269.519,710.572z M275.488,703.718l-1.949-1.708
	l3.415-3.916l1.958,1.708L275.488,703.718z M281.477,696.865l-1.958-1.708l3.425-3.912l1.949,1.703L281.477,696.865z
	 M287.455,690.021l-1.949-1.717l3.415-3.912l1.958,1.708L287.455,690.021z M293.443,683.167l-1.958-1.712l3.415-3.912l1.977,1.708
	L293.443,683.167z M299.422,676.318l-1.949-1.717l3.424-3.912l1.958,1.703L299.422,676.318z M305.41,669.464l-1.958-1.712
	l3.415-3.912l1.967,1.707L305.41,669.464z M311.407,662.611l-1.977-1.703l3.434-3.921l1.948,1.712L311.407,662.611z"/>
<rect x="67.808" y="655.62" fill="#B6E1EA" width="264.222" height="2.592"/>
<rect x="86.425" y="637.864" fill="#B6E1EA" width="2.601" height="289.347"/>
<rect x="476.282" y="940.209" fill="#B6E1EA" width="167.628" height="2.611"/>
<polygon fill="#B6E1EA" points="800.073,842.187 734.544,747.323 736.672,745.853 802.22,840.711 "/>
<path fill="#B6E1EA" d="M963.586,758.283h-2.602v-5.193h2.602V758.283z M963.586,749.187h-2.602v-5.198h2.602V749.187z
	 M963.586,740.091h-2.602v-5.198h2.602V740.091z M963.586,730.991h-2.602v-5.198h2.602V730.991z M963.586,721.896h-2.602v-5.193
	h2.602V721.896z M963.586,712.795h-2.602v-5.198h2.602V712.795z M963.586,703.704h-2.602v-5.193h2.602V703.704z M963.586,694.604
	h-2.602v-1.296h2.602V694.604z"/>
<path fill="#B6E1EA" d="M1020.76,694.604h-3.982v-2.592h3.982V694.604z M1012.785,694.604h-5.316v-2.592h5.316V694.604z
	 M1003.486,694.604h-5.307v-2.592h5.307V694.604z M994.188,694.604h-5.316v-2.592h5.316V694.604z M984.898,694.604h-5.316v-2.592
	h5.316V694.604z M975.6,694.604h-5.316v-2.592h5.316V694.604z M966.301,694.604h-5.316v-2.592h5.316V694.604z"/>
<path fill="#B6E1EA" d="M650.031,789.443l-0.539-2.545l5.079-1.069l0.54,2.554L650.031,789.443z M658.932,787.58l-0.529-2.545
	l5.079-1.069l0.53,2.549L658.932,787.58z M667.825,785.721l-0.53-2.549l5.09-1.06l0.529,2.549L667.825,785.721z M676.736,783.862
	l-0.53-2.549l5.09-1.064l0.52,2.55L676.736,783.862z M685.627,782.003l-0.529-2.554l5.099-1.06l0.539,2.545L685.627,782.003z
	 M694.539,780.144l-0.521-2.549l5.08-1.06l0.53,2.54L694.539,780.144z M703.45,778.276l-0.529-2.54l3.803-0.794l0.529,2.544
	L703.45,778.276z"/>
<path fill="#B6E1EA" d="M898.275,992.844c-111.238,0-201.749-90.512-201.749-201.75c0-111.243,90.511-201.74,201.749-201.74
	c111.237,0,201.749,90.497,201.749,201.74C1100.023,902.332,1009.512,992.844,898.275,992.844z M898.275,591.956
	c-109.81,0-199.139,89.333-199.139,199.138c0,109.81,89.329,199.148,199.139,199.148c109.819,0,199.157-89.339,199.157-199.148
	C1097.432,681.289,1008.094,591.956,898.275,591.956z"/>
<path fill="#B6E1EA" d="M899.581,1104.271c-83.738,0-162.463-32.608-221.672-91.817c-59.219-59.219-91.826-137.952-91.826-221.69
	c0-83.729,32.607-162.458,91.826-221.667c59.209-59.218,137.934-91.826,221.672-91.826c83.738,0,162.472,32.608,221.671,91.826
	c59.229,59.209,91.846,137.938,91.846,221.667c0,83.738-32.617,162.472-91.846,221.69
	C1062.053,1071.662,983.318,1104.271,899.581,1104.271z M899.581,479.871c-171.431,0-310.906,139.461-310.906,310.892
	c0,171.44,139.476,310.906,310.906,310.906c171.431,0,310.906-139.466,310.906-310.906
	C1210.486,619.332,1071.012,479.871,899.581,479.871z"/>
<path fill="#B6E1EA" d="M897.3,1129.944c-91.031,0-176.586-35.456-240.97-99.819c-64.364-64.375-99.811-149.948-99.811-240.98
	c0-91.027,35.446-176.605,99.811-240.974c64.384-64.365,149.938-99.815,240.97-99.815c91.042,0,176.614,35.451,240.999,99.815
	c64.355,64.364,99.801,149.947,99.801,240.974c0,91.032-35.445,176.605-99.801,240.98
	C1073.914,1094.488,988.342,1129.944,897.3,1129.944z M897.3,450.957c-186.472,0-338.179,151.707-338.179,338.188
	c0,186.482,151.707,338.189,338.179,338.189c186.481,0,338.208-151.707,338.208-338.189
	C1235.508,602.664,1083.781,450.957,897.3,450.957z"/>
<path fill="#B6E1EA" d="M899.135,1037.029c-137.224,0-248.84-111.653-248.84-248.863c0-137.214,111.616-248.85,248.84-248.85
	c137.214,0,248.859,111.635,248.859,248.85C1147.994,925.376,1036.35,1037.029,899.135,1037.029z M899.135,541.913
	c-135.776,0-246.258,110.467-246.258,246.253c0,135.791,110.481,246.253,246.258,246.253c135.787,0,246.257-110.462,246.257-246.253
	C1145.393,652.38,1034.922,541.913,899.135,541.913z"/>
<g opacity="0.8">
	<path fill="#B6E1EA" d="M897.916,1001.594h-0.057c-116.054,0-210.481-94.04-210.51-209.648
		c-0.028-56.021,21.871-108.693,61.612-148.315c39.75-39.623,92.602-61.446,148.831-61.465
		c116.127,0,210.555,94.059,210.584,209.658c0.02,56.021-21.871,108.693-61.611,148.311
		C1007.016,979.751,954.154,1001.584,897.916,1001.594z M897.859,583.47c-55.945,0.014-108.476,21.71-147.98,61.086
		c-39.494,39.372-61.242,91.713-61.233,147.389c0.02,114.889,93.88,208.352,209.214,208.352v0.653l0.057-0.653
		c55.889-0.018,108.428-21.709,147.932-61.082c39.504-39.381,61.242-91.722,61.232-147.393
		C1107.043,676.933,1013.193,583.47,897.859,583.47z"/>
	<polygon fill="#B6E1EA" points="887.424,583.054 887.415,554.253 910.838,554.244 910.848,583.044 909.531,583.044 909.521,555.54 
		888.739,555.554 888.739,583.054 	"/>
	<polygon fill="#B6E1EA" points="886.223,1029.746 886.223,1000.95 887.529,1000.95 887.529,1028.449 908.33,1028.44 
		908.313,1000.95 909.617,1000.95 909.627,1029.736 	"/>
	<polygon fill="#B6E1EA" points="943.512,587.528 942.225,587.325 946.52,560.17 925.973,556.936 921.66,584.09 920.383,583.891 
		924.895,555.45 948.014,559.087 	"/>
	<polygon fill="#B6E1EA" points="867.719,1056.527 844.6,1052.895 853.558,996.467 854.835,996.665 846.094,1051.807 
		866.631,1055.051 875.391,999.9 876.668,1000.108 	"/>
	<polygon fill="#B6E1EA" points="975.041,597.064 973.82,596.657 991.463,542.542 971.654,536.152 954.031,590.262 952.801,589.855 
		970.822,534.516 993.1,541.705 	"/>
	<polygon fill="#B6E1EA" points="817.752,1075.455 795.503,1068.266 822.009,986.931 823.23,987.338 797.14,1067.434 
		816.92,1073.819 843.01,993.732 844.269,994.139 	"/>
	<polygon fill="#B6E1EA" points="1004.727,611.386 1003.563,610.79 1016.088,586.298 997.555,576.891 985.021,601.392 
		983.877,600.8 996.979,575.155 1017.846,585.722 	"/>
	<polygon fill="#B6E1EA" points="1031.781,630.149 1030.73,629.393 1079.959,561.859 1063.121,549.68 1013.893,617.218 
		1012.852,616.447 1062.838,547.863 1081.775,561.571 1081.398,562.096 	"/>
	<polygon fill="#B6E1EA" points="750.295,1014.08 731.347,1000.383 765.289,953.831 766.33,954.598 733.164,1000.099 
		750.011,1012.264 783.159,966.763 784.218,967.538 	"/>
	<polygon fill="#B6E1EA" points="1055.553,652.915 1054.645,651.992 1094.234,612.526 1079.506,597.882 1039.936,637.349 
		1039.008,636.426 1079.506,596.052 1096.08,612.526 1095.615,612.989 	"/>
	<polygon fill="#B6E1EA" points="737.628,967.936 721.074,951.447 741.506,931.08 742.424,931.998 722.909,951.447 737.628,966.091 
		757.134,946.642 758.061,947.559 	"/>
	<polygon fill="#B6E1EA" points="1075.477,679.095 1074.709,678.044 1144.258,627.676 1132.018,610.917 1062.469,661.291 
		1061.711,660.236 1132.311,609.106 1146.074,627.964 	"/>
	<polygon fill="#B6E1EA" points="666.963,973.271 653.208,954.418 653.749,954.039 721.594,904.886 722.36,905.945 655.035,954.701 
		667.266,971.464 734.591,922.708 735.358,923.768 	"/>
	<polygon fill="#B6E1EA" points="1091.018,708.061 1090.432,706.902 1167.549,667.729 1158.098,649.263 1080.98,688.445 
		1080.385,687.287 1158.666,647.522 1169.307,668.296 	"/>
	<polygon fill="#B6E1EA" points="690.925,909.786 680.292,889.012 706.051,875.92 706.647,877.093 682.052,889.58 691.502,908.045 
		716.098,895.539 716.684,896.703 	"/>
	<polygon fill="#B6E1EA" points="1101.822,739.088 1101.424,737.85 1127.684,729.35 1121.232,709.645 1094.992,718.149 
		1094.584,716.919 1122.064,708.008 1129.313,730.187 	"/>
	<polygon fill="#B6E1EA" points="674.986,875.977 667.739,853.803 695.229,844.892 695.636,846.141 669.385,854.635 675.818,874.35 
		702.069,865.836 702.466,867.084 	"/>
	<polygon fill="#B6E1EA" points="1107.639,771.422 1107.422,770.141 1134.686,765.836 1131.422,745.365 1104.148,749.679 
		1103.959,748.397 1132.5,743.88 1136.18,766.915 	"/>
	<polygon fill="#B6E1EA" points="664.551,840.105 660.88,817.07 689.421,812.568 689.638,813.845 662.375,818.158 665.621,838.629 
		692.893,834.316 693.111,835.603 	"/>
	<polygon fill="#B6E1EA" points="1108.283,804.271 1108.283,802.966 1167.936,802.947 1167.918,782.225 1108.273,782.24 
		1108.273,780.934 1169.223,780.925 1169.223,804.233 	"/>
	<polygon fill="#B6E1EA" points="659.878,803.061 659.869,779.733 688.778,779.728 688.778,781.033 661.174,781.033 
		661.183,801.755 688.778,801.746 688.778,803.051 	"/>
	<polygon fill="#B6E1EA" points="1189.23,850.266 1188.586,850.161 1103.789,836.804 1103.979,835.518 1188.143,848.771 
		1191.406,828.318 1107.232,815.046 1107.422,813.77 1192.881,827.221 	"/>
	<polygon fill="#B6E1EA" points="689.629,770.226 661.07,765.732 664.741,742.693 693.291,747.196 693.073,748.468 665.819,744.183 
		662.565,764.654 689.819,768.939 	"/>
	<polygon fill="#B6E1EA" points="1121.697,877.121 1094.225,868.238 1094.613,867 1120.863,875.484 1127.287,855.771 
		1101.045,847.285 1101.434,846.055 1128.934,854.947 	"/>
	<polygon fill="#B6E1EA" points="695.626,737.939 668.127,729.047 675.364,706.869 702.835,715.756 702.428,716.995 
		676.177,708.496 669.754,728.21 696.014,736.7 	"/>
	<polygon fill="#B6E1EA" points="1129.283,922.869 1079.828,897.791 1080.434,896.637 1128.707,921.119 1138.137,902.653 
		1089.863,878.172 1090.461,876.998 1139.896,902.086 	"/>
	<polygon fill="#B6E1EA" points="706.61,706.987 680.86,693.918 691.455,673.14 717.233,686.204 716.627,687.358 692.032,674.885 
		682.591,693.355 707.196,705.823 	"/>
	<polygon fill="#B6E1EA" points="1084.367,941.656 1060.982,924.742 1061.76,923.691 1084.084,939.85 1096.307,923.068 
		1073.98,906.92 1074.738,905.869 1098.133,922.793 	"/>
	<polygon fill="#B6E1EA" points="722.313,678.125 677.691,645.838 691.446,626.971 736.068,659.252 735.311,660.303 
		691.739,628.783 679.507,645.55 723.079,677.07 	"/>
	<polygon fill="#B6E1EA" points="1081.17,991.273 1038.156,948.42 1039.064,947.512 1081.17,989.428 1095.881,974.766 
		1053.775,932.85 1054.701,931.922 1097.715,974.766 	"/>
	<polygon fill="#B6E1EA" points="742.368,652.054 681.806,591.757 698.351,575.259 758.922,635.565 758.014,636.492 
		698.351,577.094 683.641,591.757 743.286,651.141 	"/>
	<polygon fill="#B6E1EA" points="1028.867,991.547 1011.859,968.258 1012.928,967.5 1029.133,989.73 1045.971,977.547 
		1029.748,955.316 1030.787,954.55 1047.787,977.83 	"/>
	<polygon fill="#B6E1EA" points="766.273,629.45 749.264,606.159 768.203,592.447 785.202,615.733 784.142,616.499 767.918,594.259 
		751.089,606.448 767.323,628.688 	"/>
	<polygon fill="#B6E1EA" points="1022.813,1061.966 982.789,983.752 983.953,983.156 1023.391,1060.226 1041.922,1050.803 
		1002.484,973.754 1003.639,973.157 1043.682,1051.371 	"/>
	<polygon fill="#B6E1EA" points="793.413,610.842 767.749,560.682 788.598,550.096 814.262,600.247 813.118,600.838 788.03,551.832 
		769.499,561.244 794.577,610.251 	"/>
	<polygon fill="#B6E1EA" points="966.811,1040.984 951.637,994.518 952.877,994.12 967.635,1039.348 987.434,1032.943 
		972.656,987.707 973.906,987.3 989.07,1033.775 	"/>
	<polygon fill="#B6E1EA" points="823.164,596.69 814.224,569.304 836.483,562.096 845.422,589.477 844.174,589.875 835.651,563.732 
		815.861,570.141 824.394,596.283 	"/>
	<polygon fill="#B6E1EA" points="932.783,1085.672 932.67,1085.029 919.189,1000.307 920.477,1000.099 933.854,1084.188 
		954.4,1080.934 941.014,996.854 942.301,996.637 955.895,1082.012 	"/>
	<polygon fill="#B6E1EA" points="854.75,587.349 841.128,501.723 864.239,498.076 877.879,583.697 876.593,583.896 863.169,499.562 
		842.613,502.806 856.055,587.145 	"/>
	<polygon fill="#B6E1EA" points="882.364,613.931 871.106,451.227 872.402,451.137 883.668,613.846 	"/>
	<polygon fill="#B6E1EA" points="922.227,1129.755 910.951,967.056 912.246,966.971 923.514,1129.67 	"/>
	<polygon fill="#B6E1EA" points="911.566,613.893 910.27,613.779 924.695,451.316 925.982,451.435 	"/>
	
		<rect x="875.843" y="966.744" transform="matrix(0.9961 0.0877 -0.0877 0.9961 95.2826 -72.808)" fill="#B6E1EA" width="1.292" height="163.103"/>
	<polygon fill="#B6E1EA" points="939.113,618.296 937.855,617.975 977.613,459.764 978.881,460.081 	"/>
	<polygon fill="#B6E1EA" points="816.996,1121.137 815.728,1120.824 855.498,962.609 856.755,962.922 	"/>
	<polygon fill="#B6E1EA" points="965.639,626.919 964.445,626.413 1028.564,476.342 1029.748,476.858 	"/>
	<polygon fill="#B6E1EA" points="766.064,1104.555 764.873,1104.043 828.982,953.973 830.173,954.484 	"/>
	
		<rect x="1032.717" y="488.491" transform="matrix(0.8465 0.5324 -0.5324 0.8465 462.1841 -462.6593)" fill="#B6E1EA" width="1.306" height="163.267"/>
	<polygon fill="#B6E1EA" points="718.349,1080.224 717.243,1079.543 804.14,941.307 805.247,942.006 	"/>
	<polygon fill="#B6E1EA" points="1013.012,655.96 1012.029,655.109 1119.568,532.118 1120.553,532.983 	"/>
	<polygon fill="#B6E1EA" points="675.051,1048.779 674.058,1047.918 781.588,924.941 782.582,925.792 	"/>
	<polygon fill="#B6E1EA" points="1032.707,675.651 1031.865,674.653 1157.398,569.938 1158.23,570.94 	"/>
	<polygon fill="#B6E1EA" points="637.222,1010.959 636.389,1009.965 761.902,905.246 762.744,906.248 	"/>
	
		<rect x="1118.295" y="573.893" transform="matrix(0.5141 0.8578 -0.8578 0.5141 1106.1531 -641.1654)" fill="#B6E1EA" width="1.307" height="163.558"/>
	<polygon fill="#B6E1EA" points="605.796,967.709 605.125,966.592 745.537,882.73 746.217,883.848 	"/>
	<polygon fill="#B6E1EA" points="1061.684,722.945 1061.211,721.739 1213.068,660.794 1213.561,662 	"/>
	<polygon fill="#B6E1EA" points="581.542,920.098 581.069,918.896 732.917,857.946 733.4,859.157 	"/>
	<polygon fill="#B6E1EA" points="1070.273,749.395 1069.988,748.132 1229.529,711.603 1229.832,712.871 	"/>
	<polygon fill="#B6E1EA" points="565.072,869.299 564.789,868.03 724.347,831.496 724.63,832.764 	"/>
	<polygon fill="#B6E1EA" points="1074.596,776.862 1074.502,775.561 1237.834,764.346 1237.92,765.642 	"/>
	<polygon fill="#B6E1EA" points="556.785,816.551 556.691,815.254 720.033,804.035 720.109,805.331 	"/>
	<polygon fill="#B6E1EA" points="1237.617,819.029 1074.549,804.65 1074.662,803.363 1237.74,817.732 	"/>
	<polygon fill="#B6E1EA" points="719.966,777.538 556.871,763.164 556.994,761.873 720.071,776.237 	"/>
	<polygon fill="#B6E1EA" points="1228.961,871.711 1070.121,832.093 1070.434,830.834 1229.264,870.452 	"/>
	<polygon fill="#B6E1EA" points="724.176,750.057 565.365,710.454 565.667,709.191 724.498,748.799 	"/>
	<polygon fill="#B6E1EA" points="1212.104,922.387 1061.465,858.514 1061.967,857.322 1212.605,921.195 	"/>
	<polygon fill="#B6E1EA" points="732.643,723.57 582.005,659.697 582.516,658.505 733.154,722.378 	"/>
	<polygon fill="#B6E1EA" points="1187.518,969.828 1048.752,883.261 1049.434,882.154 1188.199,968.73 	"/>
	<polygon fill="#B6E1EA" points="745.167,698.733 606.42,612.181 607.102,611.079 745.868,697.636 	"/>
	<polygon fill="#B6E1EA" points="1155.771,1012.842 1032.311,905.719 1033.182,904.734 1156.631,1011.867 	"/>
	<polygon fill="#B6E1EA" points="761.448,676.152 637.998,569.039 638.839,568.065 762.29,675.178 	"/>
	<polygon fill="#B6E1EA" points="1117.666,1050.387 1012.549,925.338 1013.543,924.506 1118.66,1049.545 	"/>
	<polygon fill="#B6E1EA" points="781.068,656.391 675.969,531.356 676.962,530.523 782.08,655.554 	"/>
	<polygon fill="#B6E1EA" points="1074.143,1081.52 989.959,941.637 991.076,940.966 1075.248,1080.848 	"/>
	
		<rect x="680.394" y="569.006" transform="matrix(0.5157 0.8568 -0.8568 0.5157 857.1523 -376.9865)" fill="#B6E1EA" width="163.251" height="1.3"/>
	<polygon fill="#B6E1EA" points="1026.256,1105.5 965.07,954.209 966.281,953.727 1027.457,1105.008 	"/>
	<polygon fill="#B6E1EA" points="828.357,627.169 767.162,475.898 768.373,475.411 829.549,626.683 	"/>
	<polygon fill="#B6E1EA" points="975.191,1121.715 938.525,962.762 939.793,962.468 976.451,1121.412 	"/>
	<polygon fill="#B6E1EA" points="854.835,618.429 818.16,459.495 819.437,459.197 856.093,618.14 	"/>
	<path fill="#B6E1EA" d="M897.556,969.639h-0.048c-98.874,0-179.329-80.125-179.357-178.621
		c-0.01-47.72,18.636-92.592,52.502-126.354c33.856-33.743,78.895-52.346,126.799-52.36c98.921,0,179.376,80.125,179.396,178.615
		c0.027,47.729-18.627,92.588-52.482,126.351C990.488,951.031,945.461,969.619,897.556,969.639z M897.508,613.609
		c-47.611,0.01-92.327,18.47-125.947,51.982c-33.611,33.511-52.114,78.053-52.105,125.427
		c0.028,97.767,79.907,177.324,178.053,177.324v0.644l0.048-0.644c47.563-0.019,92.252-18.484,125.881-51.99
		c33.629-33.507,52.123-78.063,52.113-125.433C1075.523,693.147,995.645,613.609,897.508,613.609z"/>
</g>
<g>
	<g>
		<path fill="#F7911E" d="M324.121,910.77c-16.942,6.083-52.095,23.063-91.637,23.063c-44.329,0-76.577-5.431-105.259-32.807
			c-25.201-24.331-43.42-63.249-43.42-108.868c0-83.573,57.497-141.282,143.798-141.282c59.143,0,78.186,22.954,91.94,36.708
			l-19.497,18.518c-32.04-27.178-45.464-30.645-73.086-31.189c-76.748-1.509-118.257,51.66-118.257,116.63
			c0,74.312,50.354,118.583,121.823,118.905c24.775,0.114,53.609-5.847,67.902-14.946l0.331-91.609h-64.005v-20.858h89.367V910.77z"
			/>
	</g>
	<g>
		<path fill="#F7911E" d="M1296.344,683.12l-21.238,16.252c-6.707-9.1-12.799-16.2-23.828-19.932
			c-11.002-3.727-18.041-4.758-29.23-4.758c-17.037,0-33.658,5.799-43.535,14.076c-9.895,8.277-16.459,21.237-16.459,35.304
			c0,12.322,3.461,24.506,9.961,30.967c6.498,6.475,17.227,13.646,34.992,19.279l24.869,8.688
			c24.236,7.492,37.867,10.728,49.305,23.791c11.428,13.074,19.051,25.561,19.051,48.094c0,26.507-5.723,44.102-21.445,58.037
			c-15.721,13.934-34.943,22.088-64.979,22.088c-18.834,0-30.545-1.514-43.412-7.246c-12.76-5.695-33.25-24.596-39.758-33.469
			l22.74-16.025c9.102,11.484,13.32,19.497,24.16,24.69c11.654,5.581,21.928,7.567,34.33,7.567c18.219,0,35.352-4.673,45.482-13.205
			c10.123-8.514,17.322-24.539,17.322-39.846c0-13.934-8.041-25.455-15.818-31.936c-8.191-6.83-16.033-10.623-32.9-16.148
			l-24.293-8.328c-23.953-8.131-35.768-13.845-46.969-25.67c-11.199-11.825-18.635-26-18.635-45.923
			c0-24.879,5.865-43.046,21.871-58.041c16.025-14.994,35.313-21.44,61.877-21.44c10.234,0,22.59-0.17,34.943,3.68
			C1274.246,659.73,1288.094,672.728,1296.344,683.12z"/>
	</g>
	<g>
		<path fill="#F7911E" d="M1711.307,682.264l-21.227,16.247c-6.707-9.11-12.818-16.2-23.83-19.932
			c-11.029-3.737-18.049-4.763-29.23-4.763c-17.047,0-33.658,5.799-43.543,14.076c-9.877,8.272-16.451,21.237-16.451,35.304
			c0,12.316,3.463,24.501,9.961,30.971c6.49,6.466,17.217,13.636,34.973,19.279l24.889,8.688
			c24.227,7.483,37.867,10.728,49.295,23.783c11.447,13.072,19.053,25.561,19.053,48.094c0,26.506-5.713,44.102-21.436,58.045
			c-15.723,13.925-34.955,22.088-64.98,22.088c-18.844,0-30.525-1.514-43.42-7.255c-12.762-5.686-33.242-24.577-39.74-33.47
			l22.732-16.015c9.1,11.475,13.328,19.487,24.141,24.681c11.674,5.591,21.947,7.586,34.348,7.586
			c18.221,0,35.361-4.691,45.475-13.215c10.131-8.523,17.32-24.539,17.32-39.845c0-13.935-8.041-25.456-15.816-31.945
			c-8.211-6.83-16.035-10.614-32.902-16.139l-24.291-8.329c-23.953-8.131-35.76-13.854-46.969-25.674
			c-11.201-11.829-18.627-26.005-18.627-45.913c0-24.894,5.855-43.051,21.871-58.045c16.025-14.994,35.305-21.44,61.877-21.44
			c10.254,0,22.59-0.166,34.945,3.68C1689.209,658.874,1703.078,671.867,1711.307,682.264z"/>
	</g>
	<polygon fill="#F7911E" points="561.913,656.921 399.468,656.921 399.468,927.211 567.106,927.211 567.106,904.252 
		424.149,904.252 424.149,797.701 551.506,797.701 551.506,775.608 424.149,775.608 424.149,679.009 561.893,679.009 	"/>
	<polygon fill="#F7911E" points="625.359,926 625.359,660.657 656.331,660.657 821.593,892.834 821.593,657.848 845.848,657.848 
		845.848,925.972 812.494,925.972 646.804,690.763 647.458,925.972 	"/>
	<polygon fill="#F7911E" points="1083.432,657.067 920.998,657.067 920.998,927.362 1088.615,927.362 1088.615,904.395 
		945.678,904.395 945.678,797.844 1073.035,797.844 1073.035,775.755 945.678,775.755 945.678,679.151 1083.432,679.151 	"/>
	<polygon fill="#F7911E" points="1319.936,657.498 1349.395,657.498 1430.408,783.545 1513.143,657.498 1540.416,657.498 
		1442.09,810.836 1442.09,926.057 1417.287,926.057 1417.41,811.271 	"/>
</g>
<path fill="#F7911E" d="M899.495,426.513c134.566,0,252.113,72.712,315.589,180.975h551.488v369.15h-551.488
	c-63.477,108.268-181.023,180.984-315.589,180.984c-134.547,0-252.113-72.717-315.56-180.984H32.447v-369.15h551.488
	C647.381,499.226,764.948,426.513,899.495,426.513 M899.495,417.413c-66.54,0-131.917,17.68-189.035,51.135
	c-53.911,31.582-99.365,76.402-131.709,129.84H32.447h-9.1v9.1v369.15v9.1h9.1H578.75c32.344,53.449,77.798,98.26,131.709,129.846
	c57.118,33.45,122.495,51.141,189.035,51.141c66.57,0,131.945-17.69,189.064-51.141c53.912-31.586,99.348-76.396,131.709-129.846
	h546.305h9.1v-9.1v-369.15v-9.1h-9.1h-546.305c-32.361-53.438-77.797-98.259-131.709-129.84
	C1031.439,435.093,966.064,417.413,899.495,417.413L899.495,417.413z"/>
<path opacity="0.5" fill="#F7911E" d="M685.892,921.402l-0.028-1.305c1.685-0.038,3.358-0.275,4.977-0.719l0.35,1.258
	C689.468,921.1,687.69,921.365,685.892,921.402z M681.891,921.119c-1.769-0.293-3.481-0.795-5.137-1.514l0.521-1.191
	c1.551,0.681,3.159,1.153,4.824,1.418L681.891,921.119z M694.926,919.208l-0.567-1.173c1.514-0.729,2.914-1.665,4.19-2.744
	l0.843,0.984C698.03,917.439,696.526,918.414,694.926,919.208z M673.254,917.656c-1.476-1.002-2.819-2.185-4.021-3.519l0.983-0.87
	c1.107,1.258,2.384,2.365,3.766,3.32L673.254,917.656z M702.22,913.409l-1.021-0.823c1.05-1.305,1.958-2.733,2.658-4.257
	l1.183,0.549C704.283,910.486,703.336,912.019,702.22,913.409z M666.869,910.902c-0.917-1.551-1.637-3.179-2.147-4.9l1.23-0.378
	c0.482,1.608,1.163,3.159,2.033,4.597L666.869,910.902z M706.374,905.094l-1.259-0.321c0.407-1.618,0.615-3.292,0.615-4.976
	c0-1.447-0.151-2.886-0.444-4.276l1.268-0.284c0.331,1.495,0.482,3.009,0.482,4.561
	C707.036,901.584,706.808,903.363,706.374,905.094z M663.917,902.066c-0.076-0.737-0.113-1.514-0.113-2.27
	c0-1.021,0.066-2.063,0.208-3.065l1.286,0.18c-0.123,0.956-0.188,1.921-0.188,2.886c0,0.719,0.037,1.428,0.094,2.138
	L663.917,902.066z M666.178,893.25l-1.229-0.416c0.577-1.684,1.353-3.311,2.336-4.806l1.098,0.7
	C667.456,890.139,666.717,891.661,666.178,893.25z M704.16,891.916c-0.653-1.541-1.504-3.008-2.507-4.352l1.031-0.785
	c1.078,1.438,1.986,2.99,2.667,4.636L704.16,891.916z M670.719,885.777l-0.956-0.898c1.239-1.297,2.621-2.432,4.135-3.387
	l0.709,1.088C673.188,883.488,671.864,884.557,670.719,885.777z M699.108,884.774c-1.239-1.136-2.611-2.109-4.105-2.895l0.634-1.154
	c1.561,0.842,3.036,1.892,4.342,3.084L699.108,884.774z M677.956,880.877l-0.463-1.211c1.646-0.643,3.396-1.098,5.165-1.324
	l0.17,1.296C681.153,879.855,679.526,880.271,677.956,880.877z M691.541,880.414c-1.6-0.502-3.255-0.805-4.938-0.908l0.066-1.297
	c1.797,0.104,3.557,0.436,5.26,0.965L691.541,880.414z"/>
<path opacity="0.5" fill="#F7911E" d="M1039.945,1005.32l-0.039-1.305c1.684-0.038,3.359-0.284,4.967-0.738l0.35,1.258
	C1043.512,1005.008,1041.723,1005.264,1039.945,1005.32z M1035.934,1005.027c-1.75-0.293-3.49-0.795-5.117-1.514l0.52-1.191
	c1.543,0.672,3.15,1.154,4.816,1.428L1035.934,1005.027z M1048.988,1003.107l-0.576-1.164c1.504-0.738,2.922-1.664,4.199-2.752
	l0.832,0.992C1052.092,1001.338,1050.578,1002.332,1048.988,1003.107z M1027.307,1001.574c-1.477-1.012-2.828-2.194-4.021-3.537
	l0.975-0.852c1.117,1.248,2.385,2.365,3.785,3.301L1027.307,1001.574z M1056.254,997.318l-1.004-0.824
	c1.051-1.295,1.959-2.733,2.658-4.256l1.184,0.539C1058.334,994.404,1057.379,995.928,1056.254,997.318z M1020.902,994.801
	c-0.898-1.531-1.637-3.178-2.139-4.881l1.24-0.379c0.473,1.609,1.172,3.15,2.033,4.598L1020.902,994.801z M1060.426,988.993
	l-1.25-0.313c0.398-1.617,0.605-3.302,0.605-4.985c0-1.438-0.15-2.875-0.443-4.275l1.258-0.266c0.322,1.477,0.482,3.009,0.482,4.541
	C1061.078,985.493,1060.861,987.271,1060.426,988.993z M1017.969,985.976c-0.074-0.757-0.123-1.514-0.123-2.28
	c0-1.021,0.076-2.043,0.219-3.055l1.287,0.18c-0.143,0.945-0.199,1.92-0.199,2.875c0,0.719,0.027,1.438,0.104,2.147
	L1017.969,985.976z M1020.221,977.149l-1.221-0.417c0.578-1.684,1.354-3.301,2.328-4.805l1.088,0.709
	C1021.488,974.047,1020.77,975.57,1020.221,977.149z M1058.203,975.825c-0.664-1.552-1.506-3.009-2.508-4.352l1.031-0.776
	c1.078,1.42,1.977,2.971,2.668,4.617L1058.203,975.825z M1024.752,969.676l-0.936-0.898c1.248-1.287,2.619-2.432,4.133-3.387
	l0.691,1.107C1027.221,967.387,1025.916,968.465,1024.752,969.676z M1053.15,968.683c-1.23-1.135-2.619-2.109-4.096-2.903
	l0.605-1.145c1.58,0.851,3.055,1.882,4.379,3.093L1053.15,968.683z M1032.018,964.795l-0.482-1.221
	c1.664-0.652,3.406-1.098,5.174-1.324l0.152,1.297C1035.215,963.754,1033.578,964.18,1032.018,964.795z M1045.582,964.313
	c-1.588-0.502-3.254-0.805-4.938-0.908l0.076-1.287c1.787,0.104,3.557,0.417,5.25,0.965L1045.582,964.313z"/>
<path opacity="0.5" fill="#F7911E" d="M1075.021,577.813l-0.02-1.305c1.676-0.038,3.35-0.284,4.967-0.724l0.342,1.249
	C1078.598,577.515,1076.818,577.761,1075.021,577.813z M1071.029,577.524c-1.777-0.289-3.49-0.794-5.146-1.513l0.521-1.192
	c1.551,0.672,3.168,1.154,4.824,1.429L1071.029,577.524z M1084.057,575.604l-0.568-1.163c1.504-0.738,2.914-1.67,4.199-2.749
	l0.834,0.989C1087.168,573.831,1085.654,574.824,1084.057,575.604z M1062.383,574.067c-1.475-1.007-2.828-2.194-4.01-3.533
	l0.975-0.861c1.105,1.258,2.383,2.375,3.764,3.311L1062.383,574.067z M1091.32,569.815l-0.982-0.818
	c1.039-1.31,1.947-2.739,2.648-4.267l1.182,0.549C1093.412,566.901,1092.465,568.424,1091.32,569.815z M1055.998,567.303
	c-0.928-1.537-1.664-3.188-2.166-4.891l1.248-0.374c0.473,1.603,1.164,3.15,2.025,4.597L1055.998,567.303z M1095.502,561.49
	l-1.248-0.308c0.406-1.627,0.605-3.301,0.605-4.985c0-1.447-0.162-2.885-0.436-4.28l1.258-0.27c0.322,1.476,0.482,3.008,0.482,4.55
	C1096.164,557.985,1095.947,559.769,1095.502,561.49z M1053.047,558.477c-0.076-0.756-0.113-1.518-0.113-2.28
	c0-1.026,0.057-2.057,0.207-3.06l1.287,0.18c-0.133,0.951-0.199,1.916-0.199,2.88c0,0.709,0.029,1.438,0.105,2.138L1053.047,558.477
	z M1055.307,549.646l-1.229-0.412c0.576-1.698,1.352-3.306,2.336-4.81l1.088,0.714
	C1056.584,546.544,1055.838,548.062,1055.307,549.646z M1093.289,548.322c-0.652-1.542-1.504-3.008-2.508-4.347l1.041-0.79
	c1.068,1.428,1.977,2.989,2.668,4.635L1093.289,548.322z M1059.848,542.173l-0.945-0.899c1.23-1.286,2.621-2.426,4.125-3.382
	l0.699,1.098C1062.309,539.889,1061.002,540.958,1059.848,542.173z M1088.229,541.18c-1.24-1.13-2.602-2.105-4.098-2.899
	l0.635-1.149c1.561,0.847,3.027,1.887,4.342,3.088L1088.229,541.18z M1067.084,537.292l-0.463-1.215
	c1.646-0.653,3.387-1.102,5.176-1.32l0.15,1.282C1070.283,536.251,1068.654,536.677,1067.084,537.292z M1080.67,536.81
	c-1.609-0.497-3.273-0.809-4.939-0.903l0.057-1.292c1.799,0.1,3.566,0.421,5.279,0.96L1080.67,536.81z"/>
<g>
	<path fill="#F79120" d="M1720.795,904.914h-5.373v-4.437h14.246v4.437h-5.43v24.605h-3.443V904.914z"/>
	<path fill="#F79120" d="M1747.955,917.666c-0.113-3.756-0.246-8.277-0.219-12.193h-0.084c-0.615,3.537-1.4,7.454-2.242,11.125
		l-2.744,12.572h-2.648l-2.535-12.402c-0.729-3.709-1.4-7.682-1.9-11.295h-0.059c-0.064,3.793-0.197,8.4-0.34,12.373l-0.406,11.674
		h-3.227l1.25-29.042h4.539l2.471,11.673c0.67,3.406,1.258,6.85,1.74,10.085h0.074c0.512-3.141,1.146-6.726,1.883-10.122
		l2.602-11.636h4.484l1.088,29.042h-3.367L1747.955,917.666z"/>
</g>
</svg>
