<?xml version="1.0" encoding="utf-8"?>
<!-- Generator: Adobe Illustrator 16.0.0, SVG Export Plug-In . SVG Version: 6.00 Build 0)  -->
<!DOCTYPE svg PUBLIC "-//W3C//DTD SVG 1.1//EN" "http://www.w3.org/Graphics/SVG/1.1/DTD/svg11.dtd">
<svg version="1.1" xmlns="http://www.w3.org/2000/svg"  x="0px" y="0px" width="1800px"
	 height="950px" viewBox="0 360 1800 950" enable-background="new 0 0 1800 1584" xml:space="preserve">
<g id="Layer_1">
	<g>
		<path fill="#F89724" d="M1575.592,378.811c0,0,202.986,162.25,202.986,465.504c0,303.232-182.685,444.315-182.685,444.315H215.672
			c0,0-182.704-130.5-182.704-444.315c0-313.858,203.006-465.504,203.006-465.504H1575.592 M1579.231,367.742h-3.64H235.974h-3.438
			l-2.792,2.078c-2.087,1.571-207.42,158.622-207.42,474.496c0,316.014,179.659,447.983,187.291,453.428l2.732,1.935h3.326h1380.232
			h3.528l2.822-2.156c1.875-1.452,186.978-147.897,186.978-453.206c0-305.209-205.061-472.641-207.128-474.274L1579.231,367.742
			L1579.231,367.742z"/>
	</g>
	<path fill="#FFFFFF" d="M235.974,378.811c0,0-203.006,151.646-203.006,465.504c0,313.795,182.704,444.315,182.704,444.315h1380.232
		c0,0,182.674-141.083,182.674-444.315c0-303.254-202.986-465.504-202.986-465.504H235.974z"/>
	<path fill="#952D27" d="M91.737,1058.762c51.479,150.939,143.672,216.824,143.672,216.824h1340.738
		c0,0,90.318-69.814,142.081-216.824H91.737z"/>
	<g>
		<path fill="#FFFFFF" d="M558.332,1237.738h-22.914l-3.922-26.218h-27.869l-3.922,26.218h-20.85l23.121-144.505h33.236
			L558.332,1237.738z M506.517,1191.909h21.882l-10.941-73.078L506.517,1191.909z"/>
		<path fill="#FFFFFF" d="M597.97,1211.108l17.341-117.875h20.85l-22.295,144.505H580.01l-22.295-144.505h22.914L597.97,1211.108z"
			/>
		<path fill="#FFFFFF" d="M715.02,1237.738h-22.914l-3.922-26.218h-27.869l-3.922,26.218h-20.85l23.121-144.505h33.236
			L715.02,1237.738z M663.205,1191.909h21.882l-10.941-73.078L663.205,1191.909z"/>
		<path fill="#FFFFFF" d="M725.55,1093.233h22.708v144.505H725.55V1093.233z"/>
		<path fill="#FFFFFF" d="M764.772,1093.233h22.708v123.861h37.365v20.644h-60.073V1093.233z"/>
		<path fill="#FFFFFF" d="M908.245,1237.738h-22.914l-3.922-26.218H853.54l-3.922,26.218h-20.85l23.121-144.505h33.236
			L908.245,1237.738z M856.43,1191.909h21.882l-10.941-73.078L856.43,1191.909z"/>
		<path fill="#FFFFFF" d="M986.693,1126.469v5.161c0,14.863-4.541,24.359-14.658,29.107c12.18,4.748,16.928,15.689,16.928,30.966
			v11.767c0,22.295-11.766,34.269-34.475,34.269h-35.713v-144.505h34.268C976.578,1093.233,986.693,1104.174,986.693,1126.469z
			 M941.484,1113.877v38.19h8.875c8.465,0,13.625-3.716,13.625-15.276v-8.051c0-10.322-3.508-14.863-11.561-14.863H941.484z
			 M941.484,1172.711v44.384h13.004c7.639,0,11.768-3.51,11.768-14.244v-12.593c0-13.418-4.336-17.547-14.656-17.547H941.484z"/>
		<path fill="#FFFFFF" d="M1002.59,1093.233h22.707v123.861h37.365v20.644h-60.072V1093.233z"/>
		<path fill="#FFFFFF" d="M1095.279,1154.132h31.172v20.644h-31.172v42.319h39.223v20.644h-61.93v-144.505h61.93v20.644h-39.223
			V1154.132z"/>
		<path fill="#FFFFFF" d="M1256.301,1093.233l-23.74,70.188l25.393,74.317h-23.947l-18.578-57.183l-18.787,57.183h-21.262
			l25.391-74.317l-23.74-70.188h23.535l17.133,53.26l17.547-53.26H1256.301z"/>
		<path fill="#FFFFFF" d="M1336.607,1128.946v18.786c0,23.12-11.148,35.713-33.855,35.713h-10.734v54.293h-22.709v-144.505h33.443
			C1325.459,1093.233,1336.607,1105.825,1336.607,1128.946z M1292.018,1113.877v48.925h10.734c7.225,0,11.146-3.303,11.146-13.625
			v-21.676c0-10.321-3.922-13.624-11.146-13.624H1292.018z"/>
	</g>
</g>
<g id="Layer_2">
</g>
</svg>
