<?xml version="1.0" encoding="utf-8"?>
<!-- Generator: Adobe Illustrator 16.0.0, SVG Export Plug-In . SVG Version: 6.00 Build 0)  -->
<!DOCTYPE svg PUBLIC "-//W3C//DTD SVG 1.1//EN" "http://www.w3.org/Graphics/SVG/1.1/DTD/svg11.dtd">
<svg version="1.1" id="Layer_1" xmlns="http://www.w3.org/2000/svg"  x="0px" y="0px"
	 width="1750px" height="950px" viewBox="25 315 1750 950" enable-background="new 0 0 1800 1584" xml:space="preserve">
<g>
	<g>
		<path fill="#F89622" d="M1546.022,423.867c0,0,195.777,147.858,195.777,424.267c0,276.437-176.2,405.009-176.2,405.009H234.242
			c0,0-176.203-118.914-176.203-405.009c0-286.049,195.793-424.267,195.793-424.267H1546.022 M1549.525,413.742h-3.503H253.832
			h-3.306l-2.694,1.906c-2.005,1.431-200.077,144.568-200.077,432.485c0,288.082,173.294,408.36,180.671,413.353l2.631,1.772h3.186
			H1565.6h3.408l2.729-1.987c1.82-1.332,180.377-134.836,180.377-413.138c0-278.185-197.811-430.78-199.802-432.279
			L1549.525,413.742L1549.525,413.742z"/>
	</g>
	<path fill="#942D25" d="M253.832,423.867c0,0-195.793,138.218-195.793,424.267c0,286.095,176.203,405.009,176.203,405.009H1565.6
		c0,0,176.2-128.572,176.2-405.009c0-276.409-195.777-424.267-195.777-424.267H253.832z"/>
	<path fill="#F89622" d="M1417.691,1016.642H385.178L119.977,779.243V320.606h1559.884v459.215L1417.691,1016.642z
		 M389.462,1007.459H1413.39l256.186-231.415V329.796H130.261v445.649L389.462,1007.459z"/>
	<path fill="#FFFFFF" d="M388.421,1007.459H1413.39l256.186-231.415l-1.022-446.248H129.221v445.649L388.421,1007.459z"/>
	<path fill="#F89622" d="M1494.98,611.906H304.856L140.761,465.389V344.128h1518.331v121.261L1494.98,611.906z M309.127,602.724
		h1181.602l158.076-141.139V353.32H151.045v108.273L309.127,602.724z"/>
	<polygon fill="#942D25" points="151.045,352.737 151.045,463.766 311.04,602.916 1492.469,602.916 1648.805,463.766 
		1648.805,352.737 	"/>
</g>
</svg>
