<?xml version="1.0" encoding="utf-8"?>
<!-- Generator: Adobe Illustrator 16.0.0, SVG Export Plug-In . SVG Version: 6.00 Build 0)  -->
<!DOCTYPE svg PUBLIC "-//W3C//DTD SVG 1.1//EN" "http://www.w3.org/Graphics/SVG/1.1/DTD/svg11.dtd">
<svg version="1.1" id="Layer_1" xmlns="http://www.w3.org/2000/svg"  x="0px" y="0px"
	 width="1800px" height="950" viewBox="0 320 1800 950" enable-background="new 0 0 1800 1584" xml:space="preserve">
<g>
	<g>
		<path fill="#F89622" d="M1546.022,423.867c0,0,195.777,147.858,195.777,424.267c0,276.437-176.2,405.009-176.2,405.009H234.242
			c0,0-176.203-118.914-176.203-405.009c0-286.049,195.793-424.267,195.793-424.267H1546.022 M1549.525,413.742h-3.503H253.832
			h-3.306l-2.694,1.906c-2.005,1.431-200.077,144.568-200.077,432.485c0,288.082,173.294,408.36,180.671,413.353l2.631,1.772h3.186
			H1565.6h3.408l2.729-1.987c1.82-1.332,180.377-134.836,180.377-413.138c0-278.185-197.811-430.78-199.802-432.279
			L1549.525,413.742L1549.525,413.742z"/>
	</g>
	<path fill="#942D25" d="M253.832,423.867c0,0-195.793,138.218-195.793,424.267c0,286.095,176.203,405.009,176.203,405.009H1565.6
		c0,0,176.2-128.572,176.2-405.009c0-276.409-195.777-424.267-195.777-424.267H253.832z"/>
	<path fill="#F89622" d="M1417.691,1016.642H385.178L119.977,779.243V320.606h1559.884v459.215L1417.691,1016.642z
		 M389.462,1007.459H1413.39l256.186-231.415V329.796H130.261v445.649L389.462,1007.459z"/>
	<path fill="#FFFFFF" d="M388.421,1007.459H1413.39l256.186-231.415l-1.022-446.248H129.221v445.649L388.421,1007.459z"/>
	<path fill="#F89622" d="M1494.98,611.906H304.856L140.761,465.389V344.128h1518.331v121.261L1494.98,611.906z M309.127,602.724
		h1181.602l158.076-141.139V353.32H151.045v108.273L309.127,602.724z"/>
	<polygon fill="#942D25" points="151.045,352.737 151.045,463.766 311.04,602.916 1492.469,602.916 1648.805,463.766 
		1648.805,352.737 	"/>
</g>
<g>
	<path fill="#FFFFFF" d="M588.958,415.495c20.123,0,30.467,12.036,30.467,33.1v4.137h-19.559v-5.454
		c0-9.403-3.761-12.977-10.343-12.977c-6.583,0-10.344,3.573-10.344,12.977c0,27.081,40.434,32.159,40.434,69.772
		c0,21.063-10.532,33.099-30.843,33.099s-30.842-12.036-30.842-33.099v-8.087h19.559v9.403c0,9.403,4.137,12.788,10.72,12.788
		c6.582,0,10.72-3.385,10.72-12.788c0-27.082-40.434-32.159-40.434-69.772C558.491,427.531,568.835,415.495,588.958,415.495z"/>
	<path fill="#FFFFFF" d="M629.766,448.594c0-21.063,11.096-33.1,31.407-33.1s31.407,12.036,31.407,33.1v68.456
		c0,21.063-11.096,33.099-31.407,33.099s-31.407-12.036-31.407-33.099V448.594z M650.453,518.366c0,9.403,4.137,12.977,10.72,12.977
		c6.582,0,10.72-3.573,10.72-12.977v-71.088c0-9.403-4.138-12.977-10.72-12.977c-6.583,0-10.72,3.573-10.72,12.977V518.366z"/>
	<path fill="#FFFFFF" d="M772.882,548.645h-20.875l-3.573-23.884h-25.389l-3.573,23.884h-18.994L721.541,417h30.278L772.882,548.645
		z M725.678,506.894h19.935l-9.967-66.575L725.678,506.894z"/>
	<path fill="#FFFFFF" d="M809.554,496.174l-6.395,12.036v40.434h-20.687V417h20.687v57.359L830.241,417h20.687l-28.774,58.676
		l28.774,72.969h-21.251L809.554,496.174z"/>
	<path fill="#FFFFFF" d="M920.697,524.384L936.495,417h18.994l-20.311,131.645h-30.843L884.025,417H904.9L920.697,524.384z"/>
	<path fill="#FFFFFF" d="M1027.517,548.645h-20.875l-3.573-23.884H977.68l-3.573,23.884h-18.995L976.175,417h30.278
		L1027.517,548.645z M980.313,506.894h19.935l-9.968-66.575L980.313,506.894z"/>
	<path fill="#FFFFFF" d="M1037.106,417h20.688v112.838h34.039v18.807h-54.727V417z"/>
	<path fill="#FFFFFF" d="M1120.605,417v101.555c0,9.403,4.138,12.789,10.72,12.789s10.72-3.385,10.72-12.789V417h19.559v100.238
		c0,21.063-10.532,33.099-30.843,33.099s-30.843-12.036-30.843-33.099V417H1120.605z"/>
	<path fill="#FFFFFF" d="M1196.395,472.479h28.397v18.806h-28.397v38.553h35.732v18.807h-56.42V417h56.42v18.806h-35.732V472.479z"
		/>
</g>
</svg>
