<?xml version="1.0" encoding="utf-8"?>
<!-- Generator: Adobe Illustrator 22.1.0, SVG Export Plug-In . SVG Version: 6.00 Build 0)  -->
<svg version="1.1" id="Layer_1" xmlns="http://www.w3.org/2000/svg"  x="0px" y="0px"
	 viewBox="0 0 612 792" style="enable-background:new 0 0 612 792;" xml:space="preserve">
<style type="text/css">
	.st0{fill:#F49609;}
	.st1{fill:#FFFFFF;}
	.st2{fill:#982C1F;}
</style>
<g>
	<path class="st0" d="M502.5,527.8H110.9l-100.6-90V263.8H602V438L502.5,527.8z M112.5,524.4h388.3l97.2-87.8V267.3H14.2v169
		L112.5,524.4z"/>
	<path class="st1" d="M112.1,524.4h388.8l97.2-87.8l-0.4-169.2H13.8v169L112.1,524.4z"/>
	<path class="st0" d="M531.8,374.3H80.5l-62.2-55.6v-46h575.9v46L531.8,374.3z M82,370.8h448.2l60-53.5v-41.1H22.1v41.1L82,370.8z"
		/>
	<polygon class="st2" points="22.1,276 22.1,318.1 82.8,370.9 530.9,370.9 590.2,318.1 590.2,276 	"/>
</g>
<g>
	<path class="st1" d="M167.4,293.7c8.8,0,13.3,5.3,13.3,14.5v1.8h-8.5v-2.4c0-4.1-1.6-5.7-4.5-5.7c-2.9,0-4.5,1.6-4.5,5.7
		c0,11.8,17.7,14,17.7,30.5c0,9.2-4.6,14.5-13.5,14.5s-13.5-5.3-13.5-14.5v-3.5h8.5v4.1c0,4.1,1.8,5.6,4.7,5.6
		c2.9,0,4.7-1.5,4.7-5.6c0-11.8-17.7-14-17.7-30.5C154.1,299,158.6,293.7,167.4,293.7z"/>
	<path class="st1" d="M185.2,308.2c0-9.2,4.8-14.5,13.7-14.5c8.9,0,13.7,5.3,13.7,14.5V338c0,9.2-4.8,14.5-13.7,14.5
		c-8.9,0-13.7-5.3-13.7-14.5V308.2z M194.2,338.6c0,4.1,1.8,5.7,4.7,5.7c2.9,0,4.7-1.6,4.7-5.7v-31c0-4.1-1.8-5.7-4.7-5.7
		c-2.9,0-4.7,1.6-4.7,5.7V338.6z"/>
	<path class="st1" d="M247.6,351.8h-9.1l-1.6-10.4h-11.1l-1.6,10.4H216l9.2-57.5h13.2L247.6,351.8z M227,333.6h8.7l-4.4-29.1
		L227,333.6z"/>
	<path class="st1" d="M263.6,328.9l-2.8,5.3v17.7h-9v-57.5h9v25l11.8-25h9L269.1,320l12.6,31.9h-9.3L263.6,328.9z"/>
	<path class="st1" d="M312.1,341.3l6.9-46.9h8.3l-8.9,57.5H305l-8.9-57.5h9.1L312.1,341.3z"/>
	<path class="st1" d="M358.6,351.8h-9.1l-1.6-10.4h-11.1l-1.6,10.4H327l9.2-57.5h13.2L358.6,351.8z M338,333.6h8.7l-4.4-29.1
		L338,333.6z"/>
	<path class="st1" d="M362.8,294.4h9v49.3h14.9v8.2h-23.9V294.4z"/>
	<path class="st1" d="M399.3,294.4v44.3c0,4.1,1.8,5.6,4.7,5.6c2.9,0,4.7-1.5,4.7-5.6v-44.3h8.5v43.8c0,9.2-4.6,14.5-13.5,14.5
		c-8.9,0-13.5-5.3-13.5-14.5v-43.8H399.3z"/>
	<path class="st1" d="M432.4,318.6h12.4v8.2h-12.4v16.8H448v8.2h-24.6v-57.5H448v8.2h-15.6V318.6z"/>
</g>
</svg>
