<?xml version="1.0" encoding="utf-8"?>
<!-- Generator: Adobe Illustrator 22.1.0, SVG Export Plug-In . SVG Version: 6.00 Build 0)  -->
<svg version="1.1" id="Layer_1" xmlns="http://www.w3.org/2000/svg"  x="0px" y="0px"
	 viewBox="0 250 612 275" style="enable-background:new 0 0 612 792;" xml:space="preserve">
<style type="text/css">
	.st0{fill:#F49609;}
	.st1{fill:#FFFFFF;}
	.st2{fill:#982C1F;}
</style>
<g>
	<path class="st0" d="M494.3,512.4H112.4l-98.1-87.8V255h577v169.8L494.3,512.4z M114,509h378.7l94.8-85.6v-165H18.2v164.8L114,509z
		"/>
	<path class="st1" d="M113.6,509h379.1l94.8-85.6l-0.4-165H17.8v164.8L113.6,509z"/>
	<path class="st0" d="M522.9,362.7H82.7L22,308.5v-44.9h561.6v44.9L522.9,362.7z M84.3,359.3h437l58.5-52.2v-40.1h-554v40.1
		L84.3,359.3z"/>
	<polygon class="st2" points="25.8,266.8 25.8,307.9 85,359.4 522,359.4 579.8,307.9 579.8,266.8 	"/>
</g>
<g>
	<path class="st1" d="M92.2,284.2c8.1,0,12.3,4.8,12.3,13.3v1.7h-7.9V297c0-3.8-1.5-5.2-4.2-5.2c-2.7,0-4.2,1.4-4.2,5.2
		c0,10.9,16.3,13,16.3,28.1c0,8.5-4.2,13.3-12.4,13.3s-12.4-4.8-12.4-13.3v-3.3h7.9v3.8c0,3.8,1.7,5.1,4.3,5.1
		c2.7,0,4.3-1.4,4.3-5.1c0-10.9-16.3-13-16.3-28.1C79.9,289,84.1,284.2,92.2,284.2z"/>
	<path class="st1" d="M106.9,284.8h25.7v7.6h-8.7v45.4h-8.3v-45.4h-8.7V284.8z"/>
	<path class="st1" d="M153.7,337.8c-0.5-1.4-0.8-2.2-0.8-6.5v-8.3c0-4.9-1.7-6.7-5.5-6.7h-2.9v21.6h-8.3v-53h12.6
		c8.6,0,12.3,4,12.3,12.2v4.2c0,5.5-1.7,9-5.5,10.8c4.2,1.7,5.5,5.8,5.5,11.3v8.2c0,2.6,0.1,4.5,0.9,6.4H153.7z M144.6,292.3v16.3
		h3.3c3.1,0,5-1.4,5-5.6v-5.2c0-3.8-1.3-5.5-4.2-5.5H144.6z"/>
	<path class="st1" d="M193.7,337.8h-8.4l-1.4-9.6h-10.2l-1.4,9.6h-7.6l8.5-53h12.2L193.7,337.8z M174.7,321h8l-4-26.8L174.7,321z"/>
	<path class="st1" d="M197.6,284.8h8.3v53h-8.3V284.8z"/>
	<path class="st1" d="M219.4,299.4v38.4h-7.5v-53h10.4l8.6,31.7v-31.7h7.4v53h-8.6L219.4,299.4z"/>
	<path class="st1" d="M253.6,284.8h25.7v7.6h-8.7v45.4h-8.3v-45.4h-8.7V284.8z"/>
	<path class="st1" d="M291.3,337.8H283v-53h8.3v22.7h9.5v-22.7h8.5v53h-8.5v-22.7h-9.5V337.8z"/>
	<path class="st1" d="M332.7,337.8c-0.5-1.4-0.8-2.2-0.8-6.5v-8.3c0-4.9-1.7-6.7-5.5-6.7h-2.9v21.6h-8.3v-53h12.6
		c8.6,0,12.3,4,12.3,12.2v4.2c0,5.5-1.7,9-5.5,10.8c4.2,1.7,5.5,5.8,5.5,11.3v8.2c0,2.6,0.1,4.5,0.9,6.4H332.7z M323.6,292.3v16.3
		h3.3c3.1,0,5-1.4,5-5.6v-5.2c0-3.8-1.3-5.5-4.2-5.5H323.6z"/>
	<path class="st1" d="M354.1,307.1h11.4v7.6h-11.4v15.5h14.4v7.6h-22.7v-53h22.7v7.6h-14.4V307.1z"/>
	<path class="st1" d="M384.8,284.2c8.1,0,12.3,4.8,12.3,13.3v1.7h-7.9V297c0-3.8-1.5-5.2-4.2-5.2c-2.7,0-4.2,1.4-4.2,5.2
		c0,10.9,16.3,13,16.3,28.1c0,8.5-4.2,13.3-12.4,13.3s-12.4-4.8-12.4-13.3v-3.3h7.9v3.8c0,3.8,1.7,5.1,4.3,5.1
		c2.6,0,4.3-1.4,4.3-5.1c0-10.9-16.3-13-16.3-28.1C372.6,289,376.7,284.2,384.8,284.2z"/>
	<path class="st1" d="M410.3,337.8h-8.3v-53h8.3v22.7h9.5v-22.7h8.5v53h-8.5v-22.7h-9.5V337.8z"/>
	<path class="st1" d="M433.6,297.5c0-8.5,4.5-13.3,12.6-13.3c8.2,0,12.6,4.8,12.6,13.3v27.6c0,8.5-4.5,13.3-12.6,13.3
		c-8.2,0-12.6-4.8-12.6-13.3V297.5z M441.9,325.6c0,3.8,1.7,5.2,4.3,5.2c2.6,0,4.3-1.4,4.3-5.2V297c0-3.8-1.7-5.2-4.3-5.2
		c-2.7,0-4.3,1.4-4.3,5.2V325.6z"/>
	<path class="st1" d="M464.3,284.8h8.3v45.4h13.7v7.6h-22V284.8z"/>
	<path class="st1" d="M489.9,284.8h13.2c8.3,0,12.4,4.6,12.4,13.1v26.8c0,8.5-4.1,13.1-12.4,13.1h-13.2V284.8z M498.3,292.3v37.9
		h4.7c2.6,0,4.2-1.4,4.2-5.1v-27.6c0-3.8-1.6-5.2-4.2-5.2H498.3z"/>
</g>
</svg>
