<?xml version="1.0" encoding="utf-8"?>
<!-- Generator: Adobe Illustrator 22.1.0, SVG Export Plug-In . SVG Version: 6.00 Build 0)  -->
<svg version="1.1" id="Layer_1" xmlns="http://www.w3.org/2000/svg"  x="0px" y="0px"
	 viewBox="0 225 612 275" style="enable-background:new 0 0 612 792;" xml:space="preserve">
<style type="text/css">
	.st0{fill:#F49609;}
	.st1{fill:#FFFFFF;}
	.st2{fill:#982C1F;}
</style>
<g>
	<path class="st0" d="M502.3,493.3H110.7l-100.6-90V229.3h591.7v174.2L502.3,493.3z M112.3,489.8h388.3l97.2-87.8V232.8H14v169
		L112.3,489.8z"/>
	<path class="st1" d="M111.9,489.8h388.8l97.2-87.8l-0.4-169.2H13.6v169L111.9,489.8z"/>
	<path class="st0" d="M531.6,339.8H80.2L18,284.2v-46h575.9v46L531.6,339.8z M81.8,336.3H530l60-53.5v-41.1H21.9v41.1L81.8,336.3z"
		/>
	<polygon class="st2" points="21.9,241.5 21.9,283.6 82.6,336.4 530.7,336.4 590,283.6 590,241.5 	"/>
</g>
<g>
	<path class="st1" d="M96,285.2l-3.1,29H81.2l-6.1-54.4h8.3l4.6,42.9l4.1-42.9h8.2l4.3,43.2l4.4-43.2h7.5l-6.1,54.4H99.1L96,285.2z"
		/>
	<path class="st1" d="M120.1,272.9c0-8.7,4.6-13.7,13-13.7c8.4,0,13,5,13,13.7v28.3c0,8.7-4.6,13.7-13,13.7c-8.4,0-13-5-13-13.7
		V272.9z M128.6,301.7c0,3.9,1.7,5.4,4.4,5.4c2.7,0,4.4-1.5,4.4-5.4v-29.4c0-3.9-1.7-5.4-4.4-5.4c-2.7,0-4.4,1.5-4.4,5.4V301.7z"/>
	<path class="st1" d="M159.7,259.8v41.9c0,3.9,1.7,5.3,4.4,5.3c2.7,0,4.4-1.4,4.4-5.3v-41.9h8.1v41.4c0,8.7-4.4,13.7-12.7,13.7
		c-8.4,0-12.7-5-12.7-13.7v-41.4H159.7z"/>
	<path class="st1" d="M190.1,274.8v39.4h-7.7v-54.4h10.7l8.8,32.5v-32.5h7.6v54.4h-8.8L190.1,274.8z"/>
	<path class="st1" d="M215.6,259.8h13.5c8.5,0,12.7,4.7,12.7,13.4v27.5c0,8.7-4.2,13.4-12.7,13.4h-13.5V259.8z M224.2,267.6v38.8
		h4.8c2.7,0,4.3-1.4,4.3-5.3v-28.3c0-3.9-1.6-5.3-4.3-5.3H224.2z"/>
	<path class="st1" d="M256.9,259.8h26.4v7.8h-8.9v46.6h-8.5v-46.6h-8.9V259.8z"/>
	<path class="st1" d="M295.5,314.2H287v-54.4h8.5v23.3h9.7v-23.3h8.7v54.4h-8.7v-23.3h-9.7V314.2z"/>
	<path class="st1" d="M338,314.2c-0.5-1.4-0.8-2.3-0.8-6.7V299c0-5-1.7-6.9-5.6-6.9h-2.9v22.1h-8.5v-54.4H333
		c8.9,0,12.7,4.1,12.7,12.5v4.3c0,5.6-1.8,9.2-5.6,11c4.3,1.8,5.7,5.9,5.7,11.6v8.4c0,2.6,0.1,4.6,0.9,6.6H338z M328.7,267.6v16.7
		h3.3c3.2,0,5.1-1.4,5.1-5.7v-5.4c0-3.9-1.3-5.6-4.3-5.6H328.7z"/>
	<path class="st1" d="M359.9,282.7h11.7v7.8h-11.7v15.9h14.8v7.8h-23.3v-54.4h23.3v7.8h-14.8V282.7z"/>
	<path class="st1" d="M391.4,259.2c8.3,0,12.6,5,12.6,13.7v1.7h-8.1v-2.3c0-3.9-1.6-5.4-4.3-5.4c-2.7,0-4.3,1.5-4.3,5.4
		c0,11.2,16.7,13.3,16.7,28.8c0,8.7-4.4,13.7-12.7,13.7s-12.7-5-12.7-13.7v-3.3h8.1v3.9c0,3.9,1.7,5.3,4.4,5.3
		c2.7,0,4.4-1.4,4.4-5.3c0-11.2-16.7-13.3-16.7-28.8C378.9,264.2,383.1,259.2,391.4,259.2z"/>
	<path class="st1" d="M417.5,314.2H409v-54.4h8.5v23.3h9.7v-23.3h8.7v54.4h-8.7v-23.3h-9.7V314.2z"/>
	<path class="st1" d="M441.5,272.9c0-8.7,4.6-13.7,13-13.7c8.4,0,13,5,13,13.7v28.3c0,8.7-4.6,13.7-13,13.7c-8.4,0-13-5-13-13.7
		V272.9z M450,301.7c0,3.9,1.7,5.4,4.4,5.4c2.7,0,4.4-1.5,4.4-5.4v-29.4c0-3.9-1.7-5.4-4.4-5.4c-2.7,0-4.4,1.5-4.4,5.4V301.7z"/>
	<path class="st1" d="M472.9,259.8h8.5v46.6h14.1v7.8h-22.6V259.8z"/>
	<path class="st1" d="M499.2,259.8h13.5c8.5,0,12.7,4.7,12.7,13.4v27.5c0,8.7-4.2,13.4-12.7,13.4h-13.5V259.8z M507.8,267.6v38.8
		h4.8c2.7,0,4.3-1.4,4.3-5.3v-28.3c0-3.9-1.6-5.3-4.3-5.3H507.8z"/>
</g>
</svg>
