<?xml version="1.0" encoding="utf-8"?>
<!-- Generator: Adobe Illustrator 16.0.0, SVG Export Plug-In . SVG Version: 6.00 Build 0)  -->
<!DOCTYPE svg PUBLIC "-//W3C//DTD SVG 1.1//EN" "http://www.w3.org/Graphics/SVG/1.1/DTD/svg11.dtd">
<svg version="1.1" xmlns="http://www.w3.org/2000/svg"  x="0px" y="0px" width="1800px"
	 height="940px" viewBox="0 365 1800 940" enable-background="new 0 0 1800 1584" xml:space="preserve">
<g id="Layer_1">
	<g>
		<path fill="#F89724" d="M1575.592,378.811c0,0,202.986,162.25,202.986,465.504c0,303.232-182.685,444.315-182.685,444.315H215.672
			c0,0-182.704-130.5-182.704-444.315c0-313.858,203.006-465.504,203.006-465.504H1575.592 M1579.231,367.742h-3.64H235.974h-3.438
			l-2.792,2.078c-2.087,1.571-207.42,158.622-207.42,474.496c0,316.014,179.659,447.983,187.291,453.428l2.732,1.935h3.326h1380.232
			h3.528l2.822-2.156c1.875-1.452,186.978-147.897,186.978-453.206c0-305.209-205.061-472.641-207.128-474.274L1579.231,367.742
			L1579.231,367.742z"/>
	</g>
	<path fill="#FFFFFF" d="M235.974,378.811c0,0-203.006,151.646-203.006,465.504c0,313.795,182.704,444.315,182.704,444.315h1380.232
		c0,0,182.674-141.083,182.674-444.315c0-303.254-202.986-465.504-202.986-465.504H235.974z"/>
	<path fill="#952D27" d="M91.737,1058.762c51.479,150.939,143.672,216.824,143.672,216.824h1340.738
		c0,0,90.318-69.814,142.081-216.824H91.737z"/>
</g>
<g id="Layer_2">
</g>
</svg>
