<?xml version="1.0" encoding="utf-8"?>
<!-- Generator: Adobe Illustrator 16.0.0, SVG Export Plug-In . SVG Version: 6.00 Build 0)  -->
<!DOCTYPE svg PUBLIC "-//W3C//DTD SVG 1.1//EN" "http://www.w3.org/Graphics/SVG/1.1/DTD/svg11.dtd">
<svg version="1.1" xmlns="http://www.w3.org/2000/svg"  x="0px" y="0px" width="1550px"
	 height="1584px" viewBox="125 0 1550 1584" enable-background="new 0 0 1800 1584" xml:space="preserve">
<g id="Layer_1">
	<g>
		<linearGradient id="SVGID_1_" gradientUnits="userSpaceOnUse" x1="508.0889" y1="599.5859" x2="1198.5491" y2="1475.8676">
			<stop  offset="0" style="stop-color:#0F5F8E"/>
			<stop  offset="0.2953" style="stop-color:#145A89"/>
			<stop  offset="0.6961" style="stop-color:#1D4F7C"/>
			<stop  offset="0.9785" style="stop-color:#224370"/>
		</linearGradient>
		<path fill="url(#SVGID_1_)" d="M1515.113,566.108h-90.801c-20.436,274.303-249.285,490.545-528.824,490.545
			c-279.527,0-508.389-216.242-528.803-490.545h-86.145L174.918,671.731v844.951h1445.809V671.731L1515.113,566.108z"/>
		<path fill="#E9EAF3" d="M1234.674,864.833H564.611V194.751h670.063V864.833L1234.674,864.833z M578.689,850.733h641.906V208.827
			H578.689V850.733z"/>
		<g>
			<rect x="890.811" y="54.131" fill="#E9EAF3" width="14.076" height="14.089"/>
			<path fill="#E9EAF3" d="M904.887,291.981h-14.076v-27.965h14.076V291.981z M904.887,236.038h-14.076v-27.955h14.076V236.038z
				 M904.887,180.095h-14.076v-27.966h14.076V180.095z M904.887,124.173h-14.076V96.196h14.076V124.173z"/>
			<rect x="890.811" y="319.948" fill="#E9EAF3" width="14.076" height="14.088"/>
		</g>
		<g>
			<rect x="1345.846" y="522.741" fill="#E9EAF3" width="14.1" height="14.1"/>
			<path fill="#E9EAF3" d="M1317.881,536.841h-27.967v-14.1h27.967V536.841z M1261.926,536.841h-27.945v-14.1h27.945V536.841z
				 M1205.994,536.841h-27.945v-14.1h27.945V536.841z M1150.061,536.841h-27.945v-14.1h27.945V536.841z"/>
			<rect x="1080.029" y="522.741" fill="#E9EAF3" width="14.098" height="14.1"/>
		</g>
		<g>
			<rect x="890.789" y="991.384" fill="#E9EAF3" width="14.078" height="14.057"/>
			<path fill="#E9EAF3" d="M904.867,963.397h-14.078v-27.967h14.078V963.397z M904.867,907.442h-14.078v-27.945h14.078V907.442z
				 M904.867,851.532h-14.078v-27.988h14.078V851.532z M904.867,795.577h-14.078v-27.977h14.078V795.577z"/>
			<rect x="890.789" y="725.556" fill="#E9EAF3" width="14.078" height="14.09"/>
		</g>
		<g>
			<rect x="435.742" y="522.741" fill="#E9EAF3" width="14.076" height="14.1"/>
			<path fill="#E9EAF3" d="M673.592,536.841h-27.977v-14.1h27.977V536.841z M617.648,536.841h-27.965v-14.1h27.965V536.841z
				 M561.727,536.841H533.75v-14.1h27.977V536.841z M505.773,536.841h-27.957v-14.1h27.957V536.841z"/>
			<rect x="701.57" y="522.741" fill="#E9EAF3" width="14.076" height="14.1"/>
		</g>
		<linearGradient id="SVGID_2_" gradientUnits="userSpaceOnUse" x1="749.6279" y1="375.8657" x2="1439.9661" y2="1097.3049">
			<stop  offset="0" style="stop-color:#0F5F8E"/>
			<stop  offset="0.2953" style="stop-color:#145A89"/>
			<stop  offset="0.6961" style="stop-color:#1D4F7C"/>
			<stop  offset="0.9785" style="stop-color:#224370"/>
		</linearGradient>
		<path fill="url(#SVGID_2_)" d="M897.85,1030.239c-275.449,0-499.504-224.066-499.504-499.494
			c0-275.404,224.055-499.482,499.504-499.482c275.414,0,499.482,224.078,499.482,499.482
			C1397.332,806.173,1173.264,1030.239,897.85,1030.239z M897.85,73.507c-252.129,0-457.262,205.111-457.262,457.238
			c0,252.139,205.133,457.262,457.262,457.262c252.127,0,457.25-205.123,457.25-457.262
			C1355.1,278.618,1149.977,73.507,897.85,73.507z"/>
		<linearGradient id="SVGID_3_" gradientUnits="userSpaceOnUse" x1="381.1626" y1="682.1846" x2="1578.7905" y2="1622.9133">
			<stop  offset="0" style="stop-color:#0F5F8E"/>
			<stop  offset="0.2953" style="stop-color:#145A89"/>
			<stop  offset="0.6961" style="stop-color:#1D4F7C"/>
			<stop  offset="0.9785" style="stop-color:#224370"/>
		</linearGradient>
		<path fill="url(#SVGID_3_)" d="M1538.758,529.792h-142.811c0,4.709,0.168,8.59,0,13.27l137.084,0.807l113.963,110.387v884.646
			H152.27V653.511L262.33,543.868l138.375,0.516c-0.125-4.689-1.102-9.883-1.102-14.592H256.52L138.182,647.667v905.332h1522.912
			V648.276L1538.758,529.792z"/>
		<g>
			<path fill="#E9EAF3" d="M899.621,973.362c-244.039,0-442.584-198.566-442.584-442.627c0-244.039,198.545-442.596,442.584-442.596
				c244.082,0,442.617,198.545,442.617,442.596C1342.238,774.796,1143.703,973.362,899.621,973.362z M899.621,102.229
				c-236.268,0-428.508,192.229-428.508,428.517c0,236.299,192.24,428.539,428.508,428.539
				c236.299,0,428.561-192.24,428.561-428.539C1328.182,294.458,1135.92,102.229,899.621,102.229z"/>
		</g>
	</g>
	<g>
		<path fill="#FFFFFF" d="M684.296,1206.105v7.52c0,21.655-6.617,35.49-21.354,42.408c17.745,6.917,24.663,22.858,24.663,45.114
			v17.145c0,32.482-17.144,49.927-50.228,49.927h-52.032v-210.536h49.927C669.559,1157.683,684.296,1173.623,684.296,1206.105z
			 M618.428,1187.759v55.642h12.933c12.332,0,19.851-5.413,19.851-22.256v-11.73c0-15.038-5.113-21.655-16.843-21.655H618.428z
			 M618.428,1273.478v64.665h18.948c11.128,0,17.144-5.113,17.144-20.753v-18.347c0-19.55-6.316-25.565-21.354-25.565H618.428z"/>
		<path fill="#FFFFFF" d="M776.63,1368.219c-1.805-5.414-3.008-8.723-3.008-25.866v-33.084c0-19.55-6.617-26.769-21.655-26.769
			h-11.429v85.719h-33.084v-210.536h49.927c34.287,0,49.024,15.94,49.024,48.423v16.543c0,21.654-6.917,35.791-21.655,42.708
			c16.542,6.918,21.956,22.858,21.956,44.814v32.482c0,10.227,0.301,17.745,3.609,25.565H776.63z M740.538,1187.759v64.665h12.933
			c12.332,0,19.851-5.414,19.851-22.257v-20.753c0-15.038-5.113-21.655-16.843-21.655H740.538z"/>
		<path fill="#FFFFFF" d="M935.435,1368.219H902.05l-5.715-38.197h-40.604l-5.715,38.197H819.64l33.686-210.536h48.424
			L935.435,1368.219z M859.942,1301.448h31.881l-15.94-106.471L859.942,1301.448z"/>
		<path fill="#FFFFFF" d="M1024.162,1256.033l-12.031,112.186h-45.415l-23.46-210.536h32.182l17.745,166.022l15.94-166.022h31.882
			l16.542,167.226l17.144-167.226h28.873l-23.459,210.536h-43.912L1024.162,1256.033z"/>
		<path fill="#FFFFFF" d="M1149.58,1215.73v152.488h-29.776v-210.536h41.506l33.986,126.021v-126.021h29.476v210.536h-33.986
			L1149.58,1215.73z"/>
	</g>
</g>
<g id="Layer_2" display="none">
</g>
</svg>
