<?xml version="1.0" encoding="utf-8"?>
<!-- Generator: Adobe Illustrator 16.0.0, SVG Export Plug-In . SVG Version: 6.00 Build 0)  -->
<!DOCTYPE svg PUBLIC "-//W3C//DTD SVG 1.1//EN" "http://www.w3.org/Graphics/SVG/1.1/DTD/svg11.dtd">
<svg version="1.1" id="Layer_1" xmlns="http://www.w3.org/2000/svg"  x="0px" y="0px"
	 width="1800px" height="1000px" viewBox="0 300 1800 1000" enable-background="new 0 0 1800 1584" xml:space="preserve">
<g>
	<g>
		<path fill="#F89622" d="M1557.992,417.045c0,0,199.424,150.612,199.424,432.174c0,281.579-179.477,412.547-179.477,412.547
			H221.786c0,0-179.491-121.129-179.491-412.547c0-291.382,199.433-432.174,199.433-432.174H1557.992 M1561.553,406.731h-3.561
			H241.728h-3.368l-2.747,1.942c-2.033,1.458-203.797,147.26-203.797,440.545c0,293.441,176.524,415.965,184.029,421.047
			l2.683,1.805h3.258h1356.153h3.468l2.773-2.024c1.847-1.357,183.741-137.347,183.741-420.827
			c0-283.371-201.498-438.809-203.522-440.335L1561.553,406.731L1561.553,406.731z"/>
	</g>
	<path fill="#942D25" d="M241.728,417.045c0,0-199.433,140.792-199.433,432.174c0,291.418,179.491,412.547,179.491,412.547h1356.153
		c0,0,179.477-130.968,179.477-412.547c0-281.562-199.424-432.174-199.424-432.174H241.728z"/>
	<linearGradient id="SVGID_1_" gradientUnits="userSpaceOnUse" x1="1155.2012" y1="771.2529" x2="1602.0544" y2="1180.9395">
		<stop  offset="0" style="stop-color:#0F5F8E"/>
		<stop  offset="0.2953" style="stop-color:#145A89"/>
		<stop  offset="0.6961" style="stop-color:#1D4F7C"/>
		<stop  offset="0.9785" style="stop-color:#224370"/>
	</linearGradient>
	<path fill="url(#SVGID_1_)" d="M1557.992,417.045h-658.13v844.721h678.077c0,0,179.477-130.968,179.477-412.547
		C1757.416,567.657,1557.992,417.045,1557.992,417.045z"/>
	<path fill="#F89622" d="M1427.263,1020.859H375.517l-270.121-241.82V311.861H1694.32v467.77L1427.263,1020.859z M379.883,1011.506
		H1422.89l260.948-235.725v-454.56H115.869v453.952L379.883,1011.506z"/>
	<path fill="#FFFFFF" d="M378.83,1011.506h1044.06l260.948-235.725l-1.037-454.56H114.809v453.952L378.83,1011.506z"/>
	<path fill="#F89622" d="M1506,608.589H293.711L126.566,459.341v-123.52h1546.602v123.52L1506,608.589z M298.061,599.235h1203.604
		l161.025-143.769V345.185H137.032v110.29L298.061,599.235z"/>
	<polygon fill="#942D25" points="137.032,344.59 137.032,457.687 300.001,599.429 1503.441,599.429 1662.689,457.687 
		1662.689,344.59 	"/>
</g>
</svg>
