<?xml version="1.0" encoding="utf-8"?>
<!-- Generator: Adobe Illustrator 16.0.0, SVG Export Plug-In . SVG Version: 6.00 Build 0)  -->
<!DOCTYPE svg PUBLIC "-//W3C//DTD SVG 1.1//EN" "http://www.w3.org/Graphics/SVG/1.1/DTD/svg11.dtd">
<svg version="1.1" id="Layer_1" xmlns="http://www.w3.org/2000/svg"  x="0px" y="0px"
	 width="1800px" height="1000px" viewBox="0 280 1800 1000" enable-background="new 0 0 1800 1584" xml:space="preserve">
<g>
	<g>
		<path fill="#F89622" d="M1586.475,394.224c0,0,204.153,154.185,204.153,442.419c0,288.262-183.745,422.336-183.745,422.336
			H218.585c0,0-183.759-124.006-183.759-422.336c0-298.29,204.154-442.419,204.154-442.419H1586.475 M1590.128,383.667h-3.653
			H238.98h-3.447l-2.807,1.988c-2.077,1.492-208.622,150.751-208.622,450.989c0,300.406,180.708,425.816,188.385,431.032
			l2.746,1.854h3.35h1388.298h3.562l2.839-2.092c1.899-1.369,188.1-140.585,188.1-430.794c0-290.088-206.278-449.211-208.35-450.773
			L1590.128,383.667L1590.128,383.667z"/>
	</g>
	<path fill="#942D25" d="M238.98,394.224c0,0-204.154,144.13-204.154,442.419c0,298.33,183.759,422.336,183.759,422.336h1388.298
		c0,0,183.745-134.074,183.745-422.336c0-288.235-204.153-442.419-204.153-442.419H238.98z"/>
	<linearGradient id="SVGID_1_" gradientUnits="userSpaceOnUse" x1="1174.125" y1="756.8315" x2="1631.5764" y2="1176.2347">
		<stop  offset="0" style="stop-color:#0F5F8E"/>
		<stop  offset="0.2953" style="stop-color:#145A89"/>
		<stop  offset="0.6961" style="stop-color:#1D4F7C"/>
		<stop  offset="0.9785" style="stop-color:#224370"/>
	</linearGradient>
	<path fill="url(#SVGID_1_)" d="M1586.475,394.224H912.728v864.755h694.155c0,0,183.745-134.074,183.745-422.336
		C1790.628,548.409,1586.475,394.224,1586.475,394.224z"/>
	<path fill="#F89622" d="M1452.653,1012.355H375.945L99.429,764.802V286.543h1626.606v478.864L1452.653,1012.355z M380.413,1002.784
		h1067.754l267.146-241.316V296.128H110.155v464.716L380.413,1002.784z"/>
	<path fill="#FFFFFF" d="M379.346,1002.784h1068.821l267.146-241.316l-1.07-465.339H109.07v464.716L379.346,1002.784z"/>
	<path fill="#F89622" d="M1533.25,590.31H292.206l-171.1-152.786V311.075H1704.38v126.449L1533.25,590.31z M296.659,580.733
		h1232.149l164.846-147.177V320.66H131.814v112.904L296.659,580.733z"/>
	<polygon fill="#942D25" points="131.814,320.051 131.814,435.83 298.638,580.935 1530.629,580.935 1693.654,435.83 
		1693.654,320.051 	"/>
</g>
<g>
	<path fill="#FFFFFF" d="M637.047,397.612h34.123c21.571,0,32.161,11.962,32.161,33.926v69.421c0,21.964-10.59,33.926-32.161,33.926
		h-34.123V397.612z M658.619,417.223v98.053h12.158c6.864,0,10.982-3.53,10.982-13.335v-71.383c0-9.805-4.119-13.335-10.982-13.335
		H658.619z"/>
	<path fill="#FFFFFF" d="M738.63,455.463h29.612v19.61H738.63v40.202h37.26v19.611h-58.832V397.612h58.832v19.61h-37.26V455.463z"/>
	<path fill="#FFFFFF" d="M810.798,458.601h27.847v19.61h-27.847v56.675h-21.572V397.612h57.067v19.61h-35.495V458.601z"/>
	<path fill="#FFFFFF" d="M878.258,455.463h29.612v19.61h-29.612v40.202h37.26v19.611h-58.832V397.612h58.832v19.61h-37.26V455.463z"
		/>
	<path fill="#FFFFFF" d="M948.073,435.46v99.426h-19.414V397.612h27.063l22.16,82.168v-82.168H997.1v137.274h-22.16L948.073,435.46z
		"/>
	<path fill="#FFFFFF" d="M1041.615,396.043c20.983,0,31.769,12.551,31.769,34.515v4.314h-20.395v-5.687
		c0-9.805-3.922-13.531-10.786-13.531c-6.863,0-10.785,3.726-10.785,13.531c0,28.239,42.162,33.534,42.162,72.755
		c0,21.964-10.981,34.515-32.161,34.515s-32.161-12.551-32.161-34.515v-8.433h20.395v9.805c0,9.806,4.314,13.335,11.178,13.335
		c6.864,0,11.179-3.53,11.179-13.335c0-28.239-42.163-33.534-42.163-72.755C1009.846,408.594,1020.632,396.043,1041.615,396.043z"/>
	<path fill="#FFFFFF" d="M1107.507,455.463h29.612v19.61h-29.612v40.202h37.26v19.611h-58.831V397.612h58.831v19.61h-37.26V455.463z
		"/>
</g>
<g>
	<path fill="#FFFFFF" d="M411.5,1200.8c-0.98-2.941-1.634-4.739-1.634-14.055v-17.976c0-10.623-3.595-14.545-11.767-14.545h-6.21
		v46.575h-17.976v-114.396h27.128c18.63,0,26.638,8.662,26.638,26.312v8.988c0,11.766-3.759,19.447-11.767,23.205
		c8.988,3.759,11.93,12.421,11.93,24.351v17.649c0,5.556,0.164,9.642,1.961,13.891H411.5z M391.889,1102.747v35.136h7.027
		c6.7,0,10.786-2.942,10.786-12.094v-11.275c0-8.172-2.778-11.767-9.151-11.767H391.889z"/>
	<path fill="#FFFFFF" d="M497.787,1200.8h-18.14l-3.105-20.755H454.48l-3.105,20.755H434.87l18.303-114.396h26.311L497.787,1200.8z
		 M456.768,1164.521h17.323l-8.662-57.852L456.768,1164.521z"/>
	<path fill="#FFFFFF" d="M522.138,1117.945v82.854h-16.179v-114.396h22.552l18.466,68.474v-68.474h16.016V1200.8h-18.467
		L522.138,1117.945z"/>
	<path fill="#FFFFFF" d="M602.867,1137.065h25.167v36.279c0,18.304-9.152,28.763-26.801,28.763s-26.801-10.459-26.801-28.763
		v-59.485c0-18.303,9.152-28.762,26.801-28.762s26.801,10.459,26.801,28.762v11.113h-16.996v-12.257
		c0-8.171-3.595-11.276-9.315-11.276s-9.315,3.105-9.315,11.276v61.773c0,8.171,3.595,11.112,9.315,11.112s9.315-2.941,9.315-11.112
		v-21.082h-8.171V1137.065z"/>
	<path fill="#FFFFFF" d="M657.615,1134.614h24.677v16.342h-24.677v33.502h31.05v16.342h-49.026v-114.396h49.026v16.343h-31.05
		V1134.614z"/>
	<path fill="#FFFFFF" d="M699.778,1086.404h28.435c17.977,0,26.801,9.969,26.801,28.272v57.852c0,18.303-8.825,28.271-26.801,28.271
		h-28.435V1086.404z M717.754,1102.747v81.711h10.132c5.72,0,9.151-2.942,9.151-11.113v-59.485c0-8.171-3.432-11.112-9.151-11.112
		H717.754z"/>
</g>
<g>
	<path fill="#FFFFFF" d="M1149.513,1167.625l12.257-81.221h25.003V1200.8h-16.996v-82.038l-12.42,82.038h-16.995l-13.401-80.894
		v80.894h-15.688v-114.396h25.004L1149.513,1167.625z"/>
	<path fill="#FFFFFF" d="M1217.822,1134.614h24.676v16.342h-24.676v33.502h31.05v16.342h-49.026v-114.396h49.026v16.343h-31.05
		V1134.614z"/>
	<path fill="#FFFFFF" d="M1259.986,1086.404h17.977v98.054h29.579v16.342h-47.556V1086.404z"/>
	<path fill="#FFFFFF" d="M1333.362,1134.614h24.676v16.342h-24.676v33.502h31.05v16.342h-49.026v-114.396h49.026v16.343h-31.05
		V1134.614z"/>
	<path fill="#FFFFFF" d="M1393.502,1134.614h24.676v16.342h-24.676v33.502h31.05v16.342h-49.026v-114.396h49.026v16.343h-31.05
		V1134.614z"/>
</g>
</svg>
