<?xml version="1.0" encoding="utf-8"?>
<!-- Generator: Adobe Illustrator 16.0.0, SVG Export Plug-In . SVG Version: 6.00 Build 0)  -->
<!DOCTYPE svg PUBLIC "-//W3C//DTD SVG 1.1//EN" "http://www.w3.org/Graphics/SVG/1.1/DTD/svg11.dtd">
<svg version="1.1" id="Layer_1" xmlns="http://www.w3.org/2000/svg"  x="0px" y="0px"
	 width="1800px" height="1584px" viewBox="0 0 1800 1584" enable-background="new 0 0 1800 1584" xml:space="preserve">
<path d="M1702.433,815.906H106.705c-52.333,0-94.914-42.373-94.914-94.459c0-52.084,42.582-94.47,94.914-94.47h1595.728
	c52.335,0,94.916,42.385,94.916,94.47C1797.349,773.534,1754.768,815.906,1702.433,815.906z M106.705,640.365
	c-44.959,0-81.528,36.37-81.528,81.082c0,44.701,36.568,81.071,81.528,81.071h1595.728c44.962,0,81.528-36.37,81.528-81.071
	c0-44.711-36.566-81.082-81.528-81.082H106.705z"/>
<polygon points="1112.525,725.136 1049.877,636.782 1055.34,632.913 1117.99,721.266 "/>
<polygon points="1055.34,809.983 1049.877,806.113 1112.525,717.747 1117.99,721.617 "/>
<polygon points="754.412,725.136 691.764,636.782 697.229,632.913 759.877,721.266 "/>
<polygon points="697.229,809.983 691.764,806.113 754.412,717.747 759.877,721.617 "/>
<polygon points="400.326,725.136 337.665,636.782 343.128,632.913 405.792,721.266 "/>
<polygon points="343.128,809.983 337.665,806.113 400.326,717.747 405.792,721.617 "/>
<polygon points="1469.304,725.136 1406.656,636.782 1412.121,632.913 1474.77,721.266 "/>
<polygon points="1412.121,809.983 1406.656,806.113 1469.304,717.747 1474.77,721.617 "/>
</svg>
