<?xml version="1.0" encoding="utf-8"?>
<!-- Generator: Adobe Illustrator 16.0.0, SVG Export Plug-In . SVG Version: 6.00 Build 0)  -->
<!DOCTYPE svg PUBLIC "-//W3C//DTD SVG 1.1//EN" "http://www.w3.org/Graphics/SVG/1.1/DTD/svg11.dtd">
<svg version="1.1" id="Layer_1" xmlns="http://www.w3.org/2000/svg"  x="0px" y="0px"
	 width="1550px" height="1584px" viewBox="125 0 1550 1584" enable-background="new 0 0 1800 1584" xml:space="preserve">
<path fill="#FFFFFF" stroke="#000000" stroke-miterlimit="10" d="M1535.168,536.841h-144
	c-21.309,287.997-199.724,485.66-491.168,485.66c-291.432,0-472.881-197.662-494.165-485.66h-144L145.167,657.422v887.131h1507.386
	v-894.72L1535.168,536.841z"/>
<circle fill="#FFFFFF" cx="894" cy="529.84" r="468.643"/>
<linearGradient id="SVGID_1_" gradientUnits="userSpaceOnUse" x1="508.0894" y1="-373.4146" x2="1198.55" y2="502.8677" gradientTransform="matrix(1 0 0 1 0 973)">
	<stop  offset="0" style="stop-color:#0F5F8E"/>
	<stop  offset="0.2953" style="stop-color:#145A89"/>
	<stop  offset="0.6961" style="stop-color:#1D4F7C"/>
	<stop  offset="0.9785" style="stop-color:#224370"/>
</linearGradient>
<path fill="url(#SVGID_1_)" d="M1515.113,566.108h-90.801c-20.438,274.303-249.285,490.545-528.824,490.545
	c-279.527,0-508.389-216.242-528.803-490.546H280.54L174.918,671.731v844.949h1445.809V671.731L1515.113,566.108z"/>
<path fill="#E9EAF3" d="M1234.674,864.833H564.611V194.751h670.063V864.833L1234.674,864.833z M578.689,850.733h641.904V208.827
	H578.689V850.733z"/>
<g>
	<rect x="890.811" y="54.131" fill="#E9EAF3" width="14.076" height="14.089"/>
	<path fill="#E9EAF3" d="M904.887,291.981h-14.076v-27.965h14.076V291.981z M904.887,236.038h-14.076v-27.955h14.076V236.038z
		 M904.887,180.095h-14.076v-27.966h14.076V180.095z M904.887,124.173h-14.076V96.196h14.076V124.173z"/>
	<rect x="890.811" y="319.948" fill="#E9EAF3" width="14.076" height="14.088"/>
</g>
<g>
	<rect x="1345.846" y="522.741" fill="#E9EAF3" width="14.102" height="14.1"/>
	<path fill="#E9EAF3" d="M1317.881,536.841h-27.967v-14.1h27.967V536.841z M1261.926,536.841h-27.943v-14.1h27.943V536.841z
		 M1205.994,536.841h-27.945v-14.1h27.945V536.841z M1150.061,536.841h-27.943v-14.1h27.943V536.841z"/>
	<rect x="1080.029" y="522.741" fill="#E9EAF3" width="14.098" height="14.1"/>
</g>
<g>
	<rect x="890.789" y="991.384" fill="#E9EAF3" width="14.078" height="14.059"/>
	<path fill="#E9EAF3" d="M904.867,963.396h-14.078V935.43h14.078V963.396z M904.867,907.442h-14.078v-27.945h14.078V907.442z
		 M904.867,851.532h-14.078v-27.988h14.078V851.532z M904.867,795.577h-14.078V767.6h14.078V795.577z"/>
	<rect x="890.789" y="725.556" fill="#E9EAF3" width="14.078" height="14.092"/>
</g>
<g>
	<rect x="435.742" y="522.741" fill="#E9EAF3" width="14.076" height="14.1"/>
	<path fill="#E9EAF3" d="M673.592,536.841h-27.977v-14.1h27.977V536.841z M617.648,536.841h-27.967v-14.1h27.967V536.841z
		 M561.727,536.841H533.75v-14.1h27.977V536.841z M505.773,536.841h-27.957v-14.1h27.957V536.841z"/>
	<rect x="701.57" y="522.741" fill="#E9EAF3" width="14.076" height="14.1"/>
</g>
<linearGradient id="SVGID_2_" gradientUnits="userSpaceOnUse" x1="749.627" y1="-597.1353" x2="1439.9651" y2="124.304" gradientTransform="matrix(1 0 0 1 0 973)">
	<stop  offset="0" style="stop-color:#0F5F8E"/>
	<stop  offset="0.2953" style="stop-color:#145A89"/>
	<stop  offset="0.6961" style="stop-color:#1D4F7C"/>
	<stop  offset="0.9785" style="stop-color:#224370"/>
</linearGradient>
<path fill="url(#SVGID_2_)" d="M897.85,1030.239c-275.447,0-499.504-224.066-499.504-499.494
	c0-275.404,224.057-499.482,499.504-499.482c275.414,0,499.482,224.078,499.482,499.482
	C1397.332,806.173,1173.264,1030.239,897.85,1030.239z M897.85,73.507c-252.129,0-457.262,205.111-457.262,457.238
	c0,252.139,205.133,457.262,457.262,457.262c252.127,0,457.25-205.123,457.25-457.262C1355.1,278.618,1149.977,73.507,897.85,73.507
	z"/>
<linearGradient id="SVGID_3_" gradientUnits="userSpaceOnUse" x1="381.1636" y1="-290.8145" x2="1578.79" y2="649.9132" gradientTransform="matrix(1 0 0 1 0 973)">
	<stop  offset="0" style="stop-color:#0F5F8E"/>
	<stop  offset="0.2953" style="stop-color:#145A89"/>
	<stop  offset="0.6961" style="stop-color:#1D4F7C"/>
	<stop  offset="0.9785" style="stop-color:#224370"/>
</linearGradient>
<path fill="url(#SVGID_3_)" d="M1538.758,529.792h-142.811c0,4.709,0.168,8.59,0,13.271l137.084,0.808l113.963,110.387v884.646
	H152.27V653.511l110.06-109.643l138.375,0.516c-0.125-4.688-1.104-9.883-1.104-14.592H256.52L138.182,647.667v905.332h1522.912
	V648.276L1538.758,529.792z"/>
<g>
	<path fill="#E9EAF3" d="M899.621,973.362c-244.039,0-442.584-198.566-442.584-442.627c0-244.041,198.545-442.596,442.584-442.596
		c244.082,0,442.617,198.545,442.617,442.596C1342.238,774.796,1143.703,973.362,899.621,973.362z M899.621,102.229
		c-236.27,0-428.508,192.229-428.508,428.517c0,236.299,192.238,428.539,428.508,428.539c236.299,0,428.561-192.24,428.561-428.539
		C1328.182,294.458,1135.92,102.229,899.621,102.229z"/>
</g>
<g id="Layer_2" display="none">
</g>
</svg>
