<?xml version="1.0" encoding="utf-8"?>
<!-- Generator: Adobe Illustrator 16.0.0, SVG Export Plug-In . SVG Version: 6.00 Build 0)  -->
<!DOCTYPE svg PUBLIC "-//W3C//DTD SVG 1.1//EN" "http://www.w3.org/Graphics/SVG/1.1/DTD/svg11.dtd">
<svg version="1.1" id="Layer_1" xmlns="http://www.w3.org/2000/svg"  x="0px" y="0px"
	 width="1800px" height="950px" viewBox="0 305 1800 975" enable-background="new 0 0 1800 1584" xml:space="preserve">
<g>
	<g>
		<path fill="#F89622" d="M1563.982,413.382c0,0,201.248,151.989,201.248,436.121c0,284.159-181.125,416.324-181.125,416.324
			H215.565c0,0-181.142-122.241-181.142-416.324c0-294.044,201.248-436.121,201.248-436.121H1563.982 M1567.584,402.974h-3.602
			H235.67h-3.394l-2.771,1.959c-2.042,1.472-205.651,148.605-205.651,444.569c0,296.13,178.136,419.756,185.703,424.897l2.707,1.825
			h3.301h1368.541h3.505l2.804-2.061c1.873-1.352,185.417-138.585,185.417-424.662c0-285.958-203.337-442.816-205.384-444.357
			L1567.584,402.974L1567.584,402.974z"/>
	</g>
	<path fill="#942D25" d="M235.67,413.382c0,0-201.248,142.077-201.248,436.121c0,294.083,181.142,416.324,181.142,416.324h1368.541
		c0,0,181.125-132.165,181.125-416.324c0-284.132-201.248-436.121-201.248-436.121H235.67z"/>
	<linearGradient id="SVGID_1_" gradientUnits="userSpaceOnUse" x1="1157.5039" y1="770.8281" x2="1608.4445" y2="1184.2621">
		<stop  offset="0" style="stop-color:#0F5F8E"/>
		<stop  offset="0.2953" style="stop-color:#145A89"/>
		<stop  offset="0.6961" style="stop-color:#1D4F7C"/>
		<stop  offset="0.9785" style="stop-color:#224370"/>
	</linearGradient>
	<path fill="url(#SVGID_1_)" d="M1563.982,413.382H899.826v852.445h684.279c0,0,181.125-132.165,181.125-416.324
		C1765.23,565.371,1563.982,413.382,1563.982,413.382z"/>
	<path fill="#F89622" d="M1432.066,1022.714H370.686L98.11,778.685V307.233h1603.451v472.048L1432.066,1022.714z M375.089,1013.279
		h1052.554l263.344-237.883V316.683H108.684v458.101L375.089,1013.279z"/>
	<path fill="#FFFFFF" d="M374.038,1013.279h1053.605l263.344-237.883l-1.052-458.714H107.614v458.101L374.038,1013.279z"/>
	<path fill="#F89622" d="M1511.515,606.675H288.138l-168.664-150.61V331.416h1560.737v124.649L1511.515,606.675z M292.528,597.235
		h1214.614l162.494-145.082v-111.29H130.029v111.297L292.528,597.235z"/>
	<polygon fill="#942D25" points="130.029,340.265 130.029,454.395 294.479,597.434 1508.932,597.434 1669.637,454.395 
		1669.637,340.265 	"/>
</g>
<g>
	<path fill="#FFFFFF" d="M714.515,415.177c20.685,0,31.317,12.372,31.317,34.023v4.253h-20.104v-5.606
		c0-9.666-3.866-13.339-10.632-13.339s-10.632,3.673-10.632,13.339c0,27.837,41.563,33.056,41.563,71.719
		c0,21.651-10.826,34.023-31.704,34.023c-20.877,0-31.703-12.372-31.703-34.023v-8.313h20.104v9.666
		c0,9.666,4.253,13.146,11.019,13.146c6.766,0,11.019-3.48,11.019-13.146c0-27.837-41.562-33.057-41.562-71.719
		C683.198,427.549,693.83,415.177,714.515,415.177z"/>
	<path fill="#FFFFFF" d="M752.018,416.724h65.727v19.331h-22.231v115.988h-21.265V436.055h-22.231V416.724z"/>
	<path fill="#FFFFFF" d="M871.485,552.043c-1.16-3.479-1.933-5.606-1.933-16.625v-21.265c0-12.565-4.253-17.205-13.919-17.205
		h-7.346v55.094h-21.265V416.724h32.09c22.038,0,31.51,10.246,31.51,31.124v10.632c0,13.919-4.446,23.004-13.918,27.451
		c10.632,4.446,14.112,14.692,14.112,28.804v20.878c0,6.573,0.193,11.405,2.32,16.432H871.485z M848.288,436.055v41.563h8.313
		c7.926,0,12.759-3.479,12.759-14.305v-13.338c0-9.666-3.287-13.919-10.826-13.919H848.288z"/>
	<path fill="#FFFFFF" d="M973.556,552.043h-21.458l-3.673-24.551h-26.098l-3.673,24.551H899.13l21.651-135.319h31.123
		L973.556,552.043z M925.034,509.127h20.491l-10.246-68.433L925.034,509.127z"/>
	<path fill="#FFFFFF" d="M983.416,416.724h21.265v135.319h-21.265V416.724z"/>
	<path fill="#FFFFFF" d="M1039.089,454.033v98.01h-19.139V416.724h26.678l21.844,80.998v-80.998h18.945v135.319h-21.845
		L1039.089,454.033z"/>
</g>
<g>
	<path fill="#FFFFFF" d="M247.106,1095.705h54.775v16.11h-18.527v96.661h-17.721v-96.661h-18.527V1095.705z"/>
	<path fill="#FFFFFF" d="M327.333,1208.477h-17.721v-112.771h17.721v48.33h20.138v-48.33h18.043v112.771H347.47v-48.331h-20.138
		V1208.477z"/>
	<path fill="#FFFFFF" d="M415.452,1208.477c-0.966-2.899-1.611-4.672-1.611-13.854V1176.9c0-10.472-3.544-14.338-11.6-14.338h-6.122
		v45.914h-17.721v-112.771h26.743c18.366,0,26.26,8.538,26.26,25.938v8.86c0,11.6-3.706,19.171-11.6,22.877
		c8.861,3.705,11.761,12.243,11.761,24.004v17.399c0,5.478,0.161,9.505,1.933,13.693H415.452z M396.12,1111.815v34.637h6.927
		c6.605,0,10.633-2.899,10.633-11.922v-11.116c0-8.055-2.739-11.599-9.022-11.599H396.12z"/>
	<path fill="#FFFFFF" d="M460.88,1143.23h24.326v16.11H460.88v33.025h30.609v16.11h-48.331v-112.771h48.331v16.11H460.88V1143.23z"
		/>
	<path fill="#FFFFFF" d="M526.285,1094.416c17.238,0,26.099,10.311,26.099,28.354v3.544h-16.754v-4.672
		c0-8.056-3.222-11.116-8.861-11.116s-8.86,3.061-8.86,11.116c0,23.198,34.637,27.549,34.637,59.769
		c0,18.044-9.021,28.354-26.421,28.354c-17.399,0-26.42-10.311-26.42-28.354v-6.927h16.754v8.055c0,8.055,3.544,10.955,9.183,10.955
		c5.639,0,9.183-2.9,9.183-10.955c0-23.198-34.637-27.549-34.637-59.769C500.187,1104.727,509.047,1094.416,526.285,1094.416z"/>
	<path fill="#FFFFFF" d="M580.414,1208.477h-17.721v-112.771h17.721v48.33h20.138v-48.33h18.043v112.771h-18.043v-48.331h-20.138
		V1208.477z"/>
	<path fill="#FFFFFF" d="M630.029,1122.771c0-18.044,9.505-28.354,26.904-28.354c17.399,0,26.904,10.311,26.904,28.354v58.641
		c0,18.044-9.505,28.354-26.904,28.354c-17.399,0-26.904-10.311-26.904-28.354V1122.771z M647.75,1182.539
		c0,8.055,3.544,11.116,9.183,11.116c5.638,0,9.183-3.062,9.183-11.116v-60.896c0-8.056-3.544-11.116-9.183-11.116
		c-5.639,0-9.183,3.061-9.183,11.116V1182.539z"/>
	<path fill="#FFFFFF" d="M695.273,1095.705h17.722v96.661h29.159v16.11h-46.881V1095.705z"/>
	<path fill="#FFFFFF" d="M749.884,1095.705h28.032c17.721,0,26.42,9.827,26.42,27.87v57.03c0,18.044-8.699,27.871-26.42,27.871
		h-28.032V1095.705z M767.605,1111.815v80.551h9.988c5.639,0,9.021-2.899,9.021-10.955v-58.641c0-8.056-3.383-10.955-9.021-10.955
		H767.605z"/>
</g>
<g>
	<path fill="#FFFFFF" d="M1082.445,1166.429v14.982c0,18.044-9.021,28.354-26.421,28.354s-26.421-10.311-26.421-28.354v-58.641
		c0-18.044,9.021-28.354,26.421-28.354s26.421,10.311,26.421,28.354v10.954h-16.755v-12.082c0-8.056-3.544-11.116-9.183-11.116
		s-9.183,3.061-9.183,11.116v60.896c0,8.055,3.544,10.955,9.183,10.955s9.183-2.9,9.183-10.955v-16.11H1082.445z"/>
	<path fill="#FFFFFF" d="M1110.15,1095.705v86.995c0,8.055,3.545,10.955,9.184,10.955s9.183-2.9,9.183-10.955v-86.995h16.755v85.867
		c0,18.044-9.022,28.354-26.421,28.354c-17.399,0-26.421-10.311-26.421-28.354v-85.867H1110.15z"/>
	<path fill="#FFFFFF" d="M1194.406,1208.477c-0.967-2.899-1.611-4.672-1.611-13.854V1176.9c0-10.472-3.544-14.338-11.6-14.338
		h-6.122v45.914h-17.721v-112.771h26.743c18.365,0,26.259,8.538,26.259,25.938v8.86c0,11.6-3.705,19.171-11.599,22.877
		c8.86,3.705,11.76,12.243,11.76,24.004v17.399c0,5.478,0.161,9.505,1.934,13.693H1194.406z M1175.073,1111.815v34.637h6.928
		c6.605,0,10.633-2.899,10.633-11.922v-11.116c0-8.055-2.739-11.599-9.021-11.599H1175.073z"/>
	<path fill="#FFFFFF" d="M1259.166,1208.477c-0.967-2.899-1.611-4.672-1.611-13.854V1176.9c0-10.472-3.544-14.338-11.6-14.338
		h-6.122v45.914h-17.721v-112.771h26.743c18.365,0,26.259,8.538,26.259,25.938v8.86c0,11.6-3.705,19.171-11.599,22.877
		c8.86,3.705,11.76,12.243,11.76,24.004v17.399c0,5.478,0.161,9.505,1.934,13.693H1259.166z M1239.833,1111.815v34.637h6.928
		c6.605,0,10.633-2.899,10.633-11.922v-11.116c0-8.055-2.739-11.599-9.021-11.599H1239.833z"/>
	<path fill="#FFFFFF" d="M1304.594,1143.23h24.327v16.11h-24.327v33.025h30.609v16.11h-48.33v-112.771h48.33v16.11h-30.609V1143.23z
		"/>
	<path fill="#FFFFFF" d="M1361.945,1126.798v81.679h-15.949v-112.771h22.231l18.205,67.502v-67.502h15.788v112.771h-18.205
		L1361.945,1126.798z"/>
	<path fill="#FFFFFF" d="M1409.788,1095.705h54.774v16.11h-18.526v96.661h-17.722v-96.661h-18.526V1095.705z"/>
</g>
</svg>
