<?xml version="1.0" encoding="utf-8"?>
<!-- Generator: Adobe Illustrator 16.0.0, SVG Export Plug-In . SVG Version: 6.00 Build 0)  -->
<!DOCTYPE svg PUBLIC "-//W3C//DTD SVG 1.1//EN" "http://www.w3.org/Graphics/SVG/1.1/DTD/svg11.dtd">
<svg version="1.1" xmlns="http://www.w3.org/2000/svg"  x="0px" y="0px" width="1800px"
	 height="950px" viewBox="8 360 1800 950" enable-background="new 0 0 1800 1584" xml:space="preserve">
<g id="Layer_1">
	<g>
		<path fill="#F89724" d="M1575.592,378.811c0,0,202.986,162.25,202.986,465.504c0,303.232-182.685,444.315-182.685,444.315H215.672
			c0,0-182.704-130.5-182.704-444.315c0-313.858,203.006-465.504,203.006-465.504H1575.592 M1579.231,367.742h-3.64H235.974h-3.438
			l-2.792,2.078c-2.087,1.571-207.42,158.622-207.42,474.496c0,316.014,179.659,447.983,187.291,453.428l2.732,1.935h3.326h1380.232
			h3.528l2.822-2.156c1.875-1.452,186.978-147.897,186.978-453.206c0-305.209-205.061-472.641-207.128-474.274L1579.231,367.742
			L1579.231,367.742z"/>
	</g>
	<path fill="#FFFFFF" d="M235.974,378.811c0,0-203.006,151.646-203.006,465.504c0,313.795,182.704,444.315,182.704,444.315h1380.232
		c0,0,182.674-141.083,182.674-444.315c0-303.254-202.986-465.504-202.986-465.504H235.974z"/>
	<path fill="#952D27" d="M91.737,1058.762c51.479,150.939,143.672,216.824,143.672,216.824h1340.738
		c0,0,90.318-69.814,142.081-216.824H91.737z"/>
	<g>
		<path fill="#FFFFFF" d="M606.54,1093.234h70.188v20.644h-23.74v123.861H630.28v-123.861h-23.74V1093.234z"/>
		<path fill="#FFFFFF" d="M684.779,1127.915c0-23.121,12.18-36.333,34.475-36.333c22.295,0,34.475,13.212,34.475,36.333v75.143
			c0,23.121-12.18,36.333-34.475,36.333c-22.295,0-34.475-13.212-34.475-36.333V1127.915z M707.487,1204.503
			c0,10.322,4.542,14.244,11.767,14.244c7.225,0,11.767-3.922,11.767-14.244v-78.033c0-10.321-4.542-14.243-11.767-14.243
			c-7.226,0-11.767,3.922-11.767,14.243V1204.503z"/>
		<path fill="#FFFFFF" d="M761.781,1093.234h70.188v20.644h-23.74v123.861h-22.708v-123.861h-23.74V1093.234z"/>
		<path fill="#FFFFFF" d="M907.731,1237.739h-22.914l-3.922-26.218h-27.869l-3.922,26.218h-20.85l23.121-144.505h33.236
			L907.731,1237.739z M855.916,1191.91h21.882l-10.941-73.078L855.916,1191.91z"/>
		<path fill="#FFFFFF" d="M918.263,1093.234h22.708v123.861h37.364v20.644h-60.072V1093.234z"/>
		<path fill="#FFFFFF" d="M1096.004,1093.234l-23.74,70.188l25.392,74.317h-23.946l-18.579-57.183l-18.786,57.183h-21.263
			l25.392-74.317l-23.74-70.188h23.534l17.134,53.26l17.547-53.26H1096.004z"/>
		<path fill="#FFFFFF" d="M1176.31,1128.947v18.786c0,23.12-11.147,35.713-33.855,35.713h-10.734v54.293h-22.708v-144.505h33.442
			C1165.162,1093.234,1176.31,1105.826,1176.31,1128.947z M1131.72,1113.878v48.925h10.734c7.226,0,11.147-3.303,11.147-13.625
			v-21.676c0-10.321-3.922-13.624-11.147-13.624H1131.72z"/>
	</g>
</g>
<g id="Layer_2">
</g>
</svg>
