<?xml version="1.0" encoding="utf-8"?>
<!-- Generator: Adobe Illustrator 16.0.0, SVG Export Plug-In . SVG Version: 6.00 Build 0)  -->
<!DOCTYPE svg PUBLIC "-//W3C//DTD SVG 1.1//EN" "http://www.w3.org/Graphics/SVG/1.1/DTD/svg11.dtd">
<svg version="1.1" id="Layer_1" xmlns="http://www.w3.org/2000/svg"  x="0px" y="0px"
	 width="1800px" height="965" viewBox="0 310 1800 965" enable-background="new 0 0 1800 1584" xml:space="preserve">
<g>
	<g>
		<path fill="#F89622" d="M1557.992,417.045c0,0,199.424,150.612,199.424,432.174c0,281.579-179.477,412.547-179.477,412.547
			H221.786c0,0-179.491-121.129-179.491-412.547c0-291.382,199.433-432.174,199.433-432.174H1557.992 M1561.553,406.731h-3.561
			H241.728h-3.368l-2.747,1.942c-2.033,1.458-203.797,147.26-203.797,440.545c0,293.441,176.524,415.965,184.029,421.047
			l2.683,1.805h3.258h1356.153h3.468l2.773-2.024c1.847-1.357,183.741-137.347,183.741-420.827
			c0-283.371-201.498-438.809-203.522-440.335L1561.553,406.731L1561.553,406.731z"/>
	</g>
	<path fill="#942D25" d="M241.728,417.045c0,0-199.433,140.792-199.433,432.174c0,291.418,179.491,412.547,179.491,412.547h1356.153
		c0,0,179.477-130.968,179.477-412.547c0-281.562-199.424-432.174-199.424-432.174H241.728z"/>
	<linearGradient id="SVGID_1_" gradientUnits="userSpaceOnUse" x1="1155.2012" y1="771.2529" x2="1602.0544" y2="1180.9395">
		<stop  offset="0" style="stop-color:#0F5F8E"/>
		<stop  offset="0.2953" style="stop-color:#145A89"/>
		<stop  offset="0.6961" style="stop-color:#1D4F7C"/>
		<stop  offset="0.9785" style="stop-color:#224370"/>
	</linearGradient>
	<path fill="url(#SVGID_1_)" d="M1557.992,417.045h-658.13v844.721h678.077c0,0,179.477-130.968,179.477-412.547
		C1757.416,567.657,1557.992,417.045,1557.992,417.045z"/>
	<path fill="#F89622" d="M1427.263,1020.859H375.517l-270.121-241.82V311.861H1694.32v467.77L1427.263,1020.859z M379.883,1011.506
		H1422.89l260.948-235.725v-454.56H115.869v453.952L379.883,1011.506z"/>
	<path fill="#FFFFFF" d="M378.83,1011.506h1044.06l260.948-235.725l-1.037-454.56H114.809v453.952L378.83,1011.506z"/>
	<path fill="#F89622" d="M1506,608.589H293.711L126.566,459.341v-123.52h1546.602v123.52L1506,608.589z M298.061,599.235h1203.604
		l161.025-143.769V345.185H137.032v110.29L298.061,599.235z"/>
	<polygon fill="#942D25" points="137.032,344.59 137.032,457.687 300.001,599.429 1503.441,599.429 1662.689,457.687 
		1662.689,344.59 	"/>
</g>
<g>
	<path fill="#FFFFFF" d="M713.472,472.531l-7.663,71.457h-28.928l-14.943-134.102h20.499l11.303,105.749l10.153-105.749H724.2
		l10.537,106.515l10.919-106.515h18.391l-14.942,134.102h-27.97L713.472,472.531z"/>
	<path fill="#FFFFFF" d="M772.853,442.071c0-21.456,11.303-33.717,31.993-33.717s31.993,12.261,31.993,33.717v69.733
		c0,21.457-11.303,33.717-31.993,33.717s-31.993-12.261-31.993-33.717V442.071z M793.926,513.145c0,9.579,4.215,13.218,10.92,13.218
		s10.92-3.64,10.92-13.218V440.73c0-9.579-4.215-13.219-10.92-13.219s-10.92,3.64-10.92,13.219V513.145z"/>
	<path fill="#FFFFFF" d="M870.552,409.886v103.45c0,9.579,4.214,13.027,10.919,13.027s10.92-3.448,10.92-13.027v-103.45h19.924
		v102.109c0,21.456-10.729,33.717-31.418,33.717s-31.418-12.261-31.418-33.717V409.886H870.552z"/>
	<path fill="#FFFFFF" d="M945.454,446.86v97.128h-18.966V409.886h26.437l21.648,80.27v-80.27h18.774v134.102h-21.648L945.454,446.86
		z"/>
	<path fill="#FFFFFF" d="M1008.476,409.886h33.334c21.073,0,31.418,11.686,31.418,33.143v67.817
		c0,21.456-10.345,33.142-31.418,33.142h-33.334V409.886z M1029.549,429.044v95.787h11.877c6.705,0,10.729-3.449,10.729-13.027
		v-69.733c0-9.579-4.023-13.027-10.729-13.027H1029.549z"/>
	<path fill="#FFFFFF" d="M1114.985,408.354c20.499,0,31.035,12.261,31.035,33.717v4.215h-19.924v-5.556
		c0-9.579-3.831-13.219-10.536-13.219s-10.537,3.64-10.537,13.219c0,27.586,41.188,32.759,41.188,71.074
		c0,21.457-10.728,33.717-31.418,33.717c-20.689,0-31.418-12.261-31.418-33.717v-8.238h19.924v9.579
		c0,9.579,4.215,13.027,10.92,13.027s10.919-3.448,10.919-13.027c0-27.587-41.188-32.759-41.188-71.074
		C1083.95,420.615,1094.487,408.354,1114.985,408.354z"/>
</g>
<g>
	<path fill="#FFFFFF" d="M248.509,1082.727h54.276v15.964h-18.358v95.782h-17.56v-95.782h-18.358V1082.727z"/>
	<path fill="#FFFFFF" d="M328.007,1194.473h-17.561v-111.746h17.561v47.891h19.955v-47.891h17.879v111.746h-17.879v-47.892h-19.955
		V1194.473z"/>
	<path fill="#FFFFFF" d="M415.327,1194.473c-0.958-2.873-1.596-4.63-1.596-13.729v-17.561c0-10.376-3.512-14.208-11.494-14.208
		h-6.066v45.497h-17.56v-111.746h26.5c18.199,0,26.021,8.461,26.021,25.701v8.78c0,11.494-3.672,18.997-11.494,22.669
		c8.78,3.671,11.654,12.132,11.654,23.786v17.24c0,5.428,0.16,9.419,1.916,13.569H415.327z M396.17,1098.69v34.322h6.864
		c6.545,0,10.536-2.874,10.536-11.813v-11.016c0-7.981-2.714-11.493-8.94-11.493H396.17z"/>
	<path fill="#FFFFFF" d="M460.344,1129.819h24.105v15.964h-24.105v32.726h30.331v15.964h-47.892v-111.746h47.892v15.964h-30.331
		V1129.819z"/>
	<path fill="#FFFFFF" d="M525.156,1081.449c17.082,0,25.861,10.217,25.861,28.097v3.512h-16.602v-4.63
		c0-7.981-3.193-11.015-8.78-11.015s-8.78,3.033-8.78,11.015c0,22.988,34.322,27.299,34.322,59.226
		c0,17.88-8.939,28.097-26.181,28.097c-17.241,0-26.18-10.217-26.18-28.097v-6.864h16.602v7.982c0,7.981,3.512,10.854,9.099,10.854
		c5.587,0,9.1-2.873,9.1-10.854c0-22.988-34.322-27.299-34.322-59.226C499.295,1091.666,508.075,1081.449,525.156,1081.449z"/>
	<path fill="#FFFFFF" d="M578.794,1194.473h-17.56v-111.746h17.56v47.891h19.955v-47.891h17.879v111.746h-17.879v-47.892h-19.955
		V1194.473z"/>
	<path fill="#FFFFFF" d="M627.961,1109.546c0-17.88,9.418-28.097,26.66-28.097c17.241,0,26.659,10.217,26.659,28.097v58.107
		c0,17.88-9.418,28.097-26.659,28.097c-17.241,0-26.66-10.217-26.66-28.097V1109.546z M645.521,1168.771
		c0,7.981,3.512,11.015,9.1,11.015c5.587,0,9.099-3.033,9.099-11.015v-60.344c0-7.981-3.512-11.015-9.099-11.015
		c-5.587,0-9.1,3.033-9.1,11.015V1168.771z"/>
	<path fill="#FFFFFF" d="M692.614,1082.727h17.56v95.782h28.894v15.964h-46.454V1082.727z"/>
	<path fill="#FFFFFF" d="M746.729,1082.727h27.777c17.56,0,26.18,9.737,26.18,27.617v56.512c0,17.879-8.62,27.617-26.18,27.617
		h-27.777V1082.727z M764.29,1098.69v79.818h9.897c5.587,0,8.939-2.873,8.939-10.855v-58.107c0-7.982-3.352-10.855-8.939-10.855
		H764.29z"/>
</g>
<g>
	<path fill="#FFFFFF" d="M1104.844,1152.808v14.846c0,17.88-8.939,28.097-26.181,28.097c-17.24,0-26.18-10.217-26.18-28.097v-58.107
		c0-17.88,8.939-28.097,26.18-28.097c17.241,0,26.181,10.217,26.181,28.097v10.854h-16.602v-11.973c0-7.981-3.513-11.015-9.1-11.015
		c-5.588,0-9.1,3.033-9.1,11.015v60.344c0,7.981,3.512,10.854,9.1,10.854c5.587,0,9.1-2.873,9.1-10.854v-15.964H1104.844z"/>
	<path fill="#FFFFFF" d="M1132.3,1082.727v86.204c0,7.981,3.512,10.855,9.1,10.855c5.587,0,9.099-2.874,9.099-10.855v-86.204h16.603
		v85.087c0,17.879-8.939,28.096-26.181,28.096c-17.24,0-26.181-10.217-26.181-28.096v-85.087H1132.3z"/>
	<path fill="#FFFFFF" d="M1215.791,1194.473c-0.958-2.873-1.597-4.63-1.597-13.729v-17.561c0-10.376-3.512-14.208-11.494-14.208
		h-6.066v45.497h-17.56v-111.746h26.5c18.198,0,26.021,8.461,26.021,25.701v8.78c0,11.494-3.672,18.997-11.494,22.669
		c8.78,3.671,11.653,12.132,11.653,23.786v17.24c0,5.428,0.16,9.419,1.916,13.569H1215.791z M1196.634,1098.69v34.322h6.864
		c6.546,0,10.536-2.874,10.536-11.813v-11.016c0-7.981-2.714-11.493-8.939-11.493H1196.634z"/>
	<path fill="#FFFFFF" d="M1279.964,1194.473c-0.958-2.873-1.597-4.63-1.597-13.729v-17.561c0-10.376-3.512-14.208-11.494-14.208
		h-6.066v45.497h-17.56v-111.746h26.5c18.198,0,26.021,8.461,26.021,25.701v8.78c0,11.494-3.672,18.997-11.494,22.669
		c8.78,3.671,11.653,12.132,11.653,23.786v17.24c0,5.428,0.16,9.419,1.916,13.569H1279.964z M1260.807,1098.69v34.322h6.864
		c6.546,0,10.536-2.874,10.536-11.813v-11.016c0-7.981-2.714-11.493-8.939-11.493H1260.807z"/>
	<path fill="#FFFFFF" d="M1324.98,1129.819h24.105v15.964h-24.105v32.726h30.331v15.964h-47.891v-111.746h47.891v15.964h-30.331
		V1129.819z"/>
	<path fill="#FFFFFF" d="M1381.813,1113.536v80.937h-15.805v-111.746h22.03l18.039,66.888v-66.888h15.645v111.746h-18.039
		L1381.813,1113.536z"/>
	<path fill="#FFFFFF" d="M1429.223,1082.727h54.276v15.964h-18.358v95.782h-17.56v-95.782h-18.358V1082.727z"/>
</g>
</svg>
