<?xml version="1.0" encoding="utf-8"?>
<!-- Generator: Adobe Illustrator 16.0.0, SVG Export Plug-In . SVG Version: 6.00 Build 0)  -->
<!DOCTYPE svg PUBLIC "-//W3C//DTD SVG 1.1//EN" "http://www.w3.org/Graphics/SVG/1.1/DTD/svg11.dtd">
<svg version="1.1" id="Layer_1" xmlns="http://www.w3.org/2000/svg" xmlns:xlink="http://www.w3.org/1999/xlink" x="0px" y="0px"
	 width="1800px" height="1584px" viewBox="0 0 1800 1584" enable-background="new 0 0 1800 1584" xml:space="preserve">
<path fill="#010101" d="M1480.571,1003.355c-11.314,36.554-27.866,71.396-49.572,104.408c-21.653,33.048-44.31,63.729-68.222,92.089
	l109.285,162.337l-162.292-107.582c-56.871,51.213-122.438,90.395-196.354,117.74l-213.515,211.9l-213.55-213.551
	c-35.353-12.507-69.235-29.014-101.745-49.384c-32.358-20.685-62.896-42.714-91.255-66.706l-162.346,107.582l109.286-162.337
	c-50.057-54.71-89.426-118.942-117.776-193.001L107.154,791.643l215.361-215.348c27.211-70.387,66.563-134.802,117.776-192.816
	L331.006,221.003l162.346,109.42c28.359-24.047,58.897-46.067,91.255-66.756c32.51-20.321,66.393-36.877,101.745-49.375
	L899.902,0.777l213.515,211.855c36.366,11.355,71.073,27.862,104.085,49.375c33.004,21.702,63.712,44.368,92.269,68.415
	l162.292-109.42l-109.285,162.476c23.912,28.319,46.568,59.35,68.222,93.053c21.706,33.56,38.258,68.594,49.572,105.099
	l211.847,210.013L1480.571,1003.355z M493.352,458.505c-38.849,46.712-68.733,98.114-89.74,153.833
	c-21.016,55.724-31.686,115.441-31.686,179.305c0,62.564,10.669,122.474,31.686,179.345c21.007,57.059,50.891,108.774,89.74,155.486
	l230.567-334.832L493.352,458.505z M1234.699,385.128c-46.722-38.706-97.935-68.729-153.838-89.74
	c-55.857-21.057-115.579-31.722-179.309-31.722c-62.708,0-122.475,10.665-179.336,31.722
	c-57.068,21.011-108.73,51.034-155.451,89.74l334.788,225.556L1234.699,385.128z M566.765,1199.853
	c46.721,38.706,98.383,68.724,155.451,89.784c56.862,21.008,116.628,31.677,179.336,31.677c63.729,0,123.451-10.669,179.309-31.677
	c55.903-21.061,107.116-51.078,153.838-89.784L901.553,974.342L566.765,1199.853z M1309.771,1126.475
	c38.67-46.712,68.365-98.428,88.915-155.486c20.505-56.871,30.673-116.781,30.673-179.345c0-63.864-10.49-123.582-31.542-179.305
	c-21.151-55.718-51.034-107.12-89.74-153.833l-225.52,333.138L1309.771,1126.475z"/>
</svg>
