<?xml version="1.0" encoding="utf-8"?>
<!-- Generator: Adobe Illustrator 16.0.0, SVG Export Plug-In . SVG Version: 6.00 Build 0)  -->
<!DOCTYPE svg PUBLIC "-//W3C//DTD SVG 1.1//EN" "http://www.w3.org/Graphics/SVG/1.1/DTD/svg11.dtd">
<svg version="1.1" id="Layer_1" xmlns="http://www.w3.org/2000/svg" xmlns:xlink="http://www.w3.org/1999/xlink" x="0px" y="0px"
	 width="1800px" height="1584px" viewBox="0 0 1800 1584" enable-background="new 0 0 1800 1584" xml:space="preserve">
<path fill="#010101" d="M1677.638,793.287c-152.482,18.504-288.618,69.233-408.312,151.869
	c11.957,70.771,33.147,139.385,63.605,205.716c30.508,66.504,69.145,129.184,115.955,187.869v3.206h-4.834
	c-57.759-46.547-119.779-85.318-186.196-115.776c-66.462-30.637-135.604-51.69-207.475-63.786
	c-81.624,119.918-131.686,255.821-150.241,408.269l-3.249,3.335l-3.257-3.335c-5.448-76.224-21.799-148.658-48.969-217.236
	c-27.294-68.569-61.579-132.219-102.85-191.032c-70.862,12.096-139.17,33.149-205.06,63.786
	c-65.891,30.458-127.688,69.229-185.318,115.776h-6.554v-3.206c95.786-119.608,156.224-250.857,181.281-393.585
	c-119.784-82.636-256.395-133.365-409.932-151.869l-3.257-3.21l3.257-3.339c76.173-5.409,148.921-21.842,218.064-48.969
	c69.139-27.071,133.092-60.918,191.867-101.272c-11.958-71.908-33.496-140.658-64.527-206.505
	c-31.036-66.066-69.937-127.606-116.753-185.365v-6.682h6.554c57.631,46.903,119.428,85.808,185.318,116.753
	c65.89,31.074,134.198,52.612,205.06,64.566c41.271-58.814,75.555-122.458,102.85-191.027
	c27.169-68.621,43.521-141.493,48.969-218.862l3.257-3.339l3.249,3.339c18.555,153.627,68.617,290.114,150.241,409.889
	c143.826-25.009,274.989-85.315,393.671-181.319h4.834v6.682c-46.811,57.759-85.447,119.299-115.955,185.365
	c-30.458,65.847-51.648,134.597-63.605,206.505c58.778,40.354,122.152,74.201,190.285,101.272
	c68.003,27.126,140.662,43.56,218.026,48.969l3.249,3.339L1677.638,793.287z M896.893,990.915
	c54.464,0,101.534-19.957,141.317-59.474c39.689-39.913,59.56-86.939,59.56-141.365c0-54.502-19.87-101.581-59.56-141.27
	c-39.783-39.913-86.854-59.65-141.317-59.65c-54.463,0-101.542,19.737-141.231,59.65c-39.779,39.689-59.65,86.768-59.65,141.27
	c0,54.425,19.871,101.452,59.65,141.365C795.351,970.958,842.43,990.915,896.893,990.915z"/>
</svg>
