<?xml version="1.0" encoding="utf-8"?>
<!-- Generator: Adobe Illustrator 16.0.0, SVG Export Plug-In . SVG Version: 6.00 Build 0)  -->
<!DOCTYPE svg PUBLIC "-//W3C//DTD SVG 1.1//EN" "http://www.w3.org/Graphics/SVG/1.1/DTD/svg11.dtd">
<svg version="1.1" id="Layer_1" xmlns="http://www.w3.org/2000/svg" xmlns:xlink="http://www.w3.org/1999/xlink" x="0px" y="0px"
	 width="1800px" height="1584px" viewBox="0 0 1800 1584" enable-background="new 0 0 1800 1584" xml:space="preserve">
<path fill="#010101" d="M1639.199,1353.443c24.301,26.4,48.114,46.998,71.343,61.253c-25.46-12.154-54.813-22.026-88.055-29.799
	c-30.967-6.657-68.885-10.543-113.609-11.658c-44.951-0.984-97.762,3.886-158.57,14.917
	c-55.449,60.938-122.244,108.574-200.88,142.79c-78.584,34.226-162.761,51.381-252.384,51.381
	c-88.551,0-172.014-17.331-250.649-52.183s-146.546-83.323-204.087-145.247c-60.939-10.056-113.166-14.429-156.906-13.313
	c-43.792,0.984-81.102,4.87-112.059,11.657c-33.249,6.526-62.551,16.572-88.02,29.843c23.194-15.535,47.007-36.63,71.316-63.039
	c16.703-23.187,37.432-53.654,62.273-91.278c24.937-37.615,47.312-85.911,67.291-144.62c-6.657-26.4-11.71-53.838-14.926-82.034
	c-3.398-28.187-5.053-57.854-5.053-88.813c0-74.262,11.85-144.629,35.706-211.732c23.804-66.799,57.054-127.115,99.678-180.905
	c42.485-53.66,93.553-99.856,152.706-138.639c59.206-38.734,123.047-66.302,191.802-83.009
	c38.564-46.515,67.918-89.627,87.836-129.525c19.936-39.854,36.648-74.074,49.77-102.762c10.063-34.36,15.562-66.481,16.72-96.28
	c1.116,32.078,8.757,64.651,23.186,97.887c8.896,28.862,23.507,63.218,44.097,103.791c20.415,40.346,49.909,83.284,88.638,128.67
	c67.649,17.518,130.375,45.574,188.544,83.685c58.081,38.246,108.478,84.308,151.11,137.789
	c42.485,53.838,76.04,113.797,100.349,180.278c24.302,66.307,36.447,136.49,36.447,210.752c0,30.958-1.917,61.254-5.804,90.468
	c-3.886,29.313-9.558,58.353-17.338,87.21c19.936,56.391,42.319,103.442,67.291,141.013
	C1601.76,1299.604,1622.487,1330.075,1639.199,1353.443L1639.199,1353.443z M580.096,1328.472
	c43.113,37.614,91.767,66.655,146.058,87.209c54.143,20.467,111.196,30.47,170.89,30.47c59.78,0,117.053-10.003,171.831-30.47
	c54.771-20.554,104.418-47.983,148.646-82.339c-22.201-61.924-45.213-113.801-68.895-155.974
	c-23.813-42.136-46.197-75.872-67.282-101.332c-24.311-28.684-49.778-52-76.361-69.706c27.751,14.429,60.32,24.85,97.935,31.638
	c32.082,6.482,71.987,9.872,119.474,9.872c47.67,0,103.616-7.093,167.823-21.539c5.48-21.076,8.217-48.654,8.217-83.001
	c0-53.167-8.095-104.104-24.136-152.714c-16.041-48.654-37.928-93.557-65.496-134.574c-27.69-40.834-61.741-76.85-102.135-107.812
	c-40.386-30.958-84.309-55.263-131.986-73.094c-43.112,48.793-76.658,94.363-100.339,136.987
	c-23.814,42.624-40.221,78.949-49.1,108.748c-15.412,38.782-23.682,73.002-24.797,102.802c-1.159-29.8-7.336-64.02-18.315-102.802
	c-13.322-29.799-32.081-66.124-56.435-108.748c-24.31-42.625-57.542-88.194-99.538-136.987
	c-48.793,17.831-92.708,42.136-131.934,73.094c-39.409,30.961-73.948,66.978-103.756,107.812
	c-30.016,41.017-52.897,85.919-68.938,134.574c-16.032,48.61-24.118,99.547-24.118,152.714c0,15.545,0.627,29.799,1.603,43.112
	c1.115,13.314,2.283,25.914,3.389,38.234c65.366,13.321,122.114,19.804,170.097,19.804c48.114,0,88.325-3.267,120.458-9.881
	c37.571-6.647,70.141-16.528,97.883-29.842c-26.575,17.688-52.052,41.013-76.344,69.695c-21.095,25.47-43.435,58.893-67.3,100.35
	C623.383,1216.281,601.008,1267.532,580.096,1328.472z"/>
</svg>
