<?xml version="1.0" encoding="utf-8"?>
<!-- Generator: Adobe Illustrator 16.0.0, SVG Export Plug-In . SVG Version: 6.00 Build 0)  -->
<!DOCTYPE svg PUBLIC "-//W3C//DTD SVG 1.1//EN" "http://www.w3.org/Graphics/SVG/1.1/DTD/svg11.dtd">
<svg version="1.1" id="Layer_1" xmlns="http://www.w3.org/2000/svg" xmlns:xlink="http://www.w3.org/1999/xlink" x="0px" y="0px"
	 width="1800px" height="1584px" viewBox="0 0 1800 1584" enable-background="new 0 0 1800 1584" xml:space="preserve">
<path fill="#010101" d="M899.14,17.967c106.432,0,207.131,20.693,301.675,62.068c94.497,41.229,177.163,96.627,247.837,166.142
	c70.676,69.416,126.257,151.158,166.973,244.985c40.696,94.016,61.191,194.367,61.191,301.011
	c0,106.63-20.495,206.792-61.191,300.816c-40.716,93.969-96.297,175.899-166.973,246.047
	c-70.674,70.185-153.34,125.578-247.837,167.009c-94.544,41.376-195.243,62.067-301.675,62.067
	c-106.648,0-206.999-20.691-300.826-62.067c-94.016-41.431-176.483-96.824-246.97-167.009
	c-70.666-70.147-126.455-152.078-167.151-246.047c-40.697-94.024-61.049-194.187-61.049-300.816
	c0-106.644,20.353-206.995,61.049-301.011c40.697-93.827,96.486-175.57,167.151-244.985
	c70.486-69.515,152.954-124.914,246.97-166.142C692.142,38.66,792.492,17.967,899.14,17.967z M423.093,364.511
	c-47.871,54.045-85.956,114.228-113.992,180.698c-28.272,66.319-44.034,137.861-47.56,214.673
	c47.71-13.297,93.677-29.827,137.333-49.45c43.694-19.632,85.937-44.039,126.643-72.805c-8.409-46.645-21.56-93.097-39.49-139.072
	C467.995,452.394,447.113,407.677,423.093,364.511z M261.542,826.195c3.525,76.813,19.288,148.553,47.56,215.55
	c28.036,67.196,66.121,126.992,113.992,179.633c24.02-42.969,44.901-87.201,62.936-132.063
	c17.93-44.957,31.081-91.941,39.49-141.058c-40.707-27.356-82.949-51.188-126.643-71.74
	C355.219,856.174,309.252,839.497,261.542,826.195z M746.328,418.556c50.378-77.872,89.821-165.901,118.573-264.127
	c-76.661,3.677-147.863,19.627-213.655,47.71c-65.942,28.036-125.728,66.272-179.576,113.982
	C557.806,367.707,649.362,401.733,746.328,418.556L746.328,418.556z M471.671,1269.965
	c53.848,45.383,113.633,82.807,179.576,112.238c65.792,29.3,136.994,45.777,213.655,49.454
	c-28.752-98.229-68.195-186.26-118.573-264.126c-47.861,8.408-94.893,21.36-141,38.574
	C559.352,1223.451,514.64,1244.682,471.671,1269.965z M701.427,792.174c0,27.499,5.119,53.658,15.281,78.216
	c10.144,24.548,24.02,45.439,41.375,62.794c17.394,17.204,38.284,31.421,62.785,42.101c24.557,10.87,50.708,16.149,78.272,16.149
	c27.49,0,53.461-5.279,78.009-16.149c24.558-10.68,45.637-24.896,62.991-42.101c17.355-17.354,31.364-38.246,42.092-62.794
	c10.889-24.558,16.158-50.717,16.158-78.216c0-27.556-5.27-53.32-16.158-77.198c-10.728-24.025-24.736-44.52-42.092-62.068
	c-17.354-17.209-38.434-31.42-62.991-42.105c-24.548-10.875-50.52-16.145-78.009-16.145c-27.564,0-53.715,5.27-78.272,16.145
	c-24.501,10.685-45.391,24.896-62.785,42.105c-17.354,17.548-31.231,38.042-41.375,62.068
	C706.546,738.854,701.427,764.618,701.427,792.174z M1053.479,418.556c96.977-16.822,188.721-50.849,274.799-102.434
	c-53.847-47.71-113.633-85.946-179.565-113.982c-65.802-28.083-138.211-44.034-217.342-47.71
	C958.927,249.128,999.633,337.149,1053.479,418.556L1053.479,418.556z M1053.479,1167.531
	c-53.847,81.401-94.553,169.423-122.108,264.126c79.131-3.677,151.54-20.154,217.342-49.454
	c65.933-29.432,125.719-66.855,179.565-112.238c-43.119-25.283-87.671-46.514-133.788-63.859
	C1148.364,1188.892,1101.332,1175.939,1053.479,1167.531L1053.479,1167.531z M1538.465,759.881
	c-4.732-76.812-21.598-148.354-50.181-214.673c-28.752-66.47-65.923-126.653-111.362-180.698
	c-25.283,43.167-46.513,87.883-63.867,134.043c-17.355,45.976-30.158,92.427-38.623,139.072
	c40.715,28.767,83.006,53.173,126.662,72.805C1444.787,730.054,1490.566,746.584,1538.465,759.881z M1376.922,1221.378
	c45.439-52.641,82.61-112.437,111.362-179.633c28.583-66.997,45.448-138.737,50.181-215.55
	c-47.898,13.302-93.678,29.979-137.371,50.321c-43.656,20.552-85.947,44.384-126.662,71.74
	c8.465,49.116,21.268,96.101,38.623,141.058C1330.409,1134.177,1351.639,1178.409,1376.922,1221.378z"/>
</svg>
